<?xml version="1.0" encoding="utf-8"?>
<!-- Generator: Adobe Illustrator 23.0.3, SVG Export Plug-In . SVG Version: 6.00 Build 0)  -->
<svg version="1.1" id="bulkClouds" xmlns="http://www.w3.org/2000/svg" xmlns:xlink="http://www.w3.org/1999/xlink" x="0px" y="0px"
	 viewBox="0 0 2314.05 907.73" >
<style type="text/css">
	.cloudBackground{fill:#FFFFFF; opacity: 0.8;}
	.cloudForeground{fill:#e7e5e5; opacity: 0.8;}
</style>
<g>
	<g>
	
		<path class="cloudBackground"
		
		 d="M1876.11,772.82c-14.08-2.6-28.08-3.05-42.26-1.73c-6.12,0.57-12.32,0.87-18.46,0.65
			c-10.38-0.38-13.41-2.82-16.3-12.78c-1.62-5.57-4.98-8.94-10.57-9.99c-3.1-0.58-6.26-0.88-9.4-1.14c-1.45-0.12-2.54-0.23-2.8-2.02
			c-1.21-8.24-7.41-11.77-14.33-13.53c-23.29-5.93-45.87-2.92-67.7,6.68c-2.77,1.22-6.3,3.15-6.29,5.95
			c0.03,7.56-4.68,4.49-8.15,4.31c-2.99-0.15-5.97-0.6-8.96-0.73c-9-0.39-18.02-0.68-26.68,2.45c-7.86,2.84-9.95,6.42-8.04,14.34
			c0.99,4.09-0.72,5.48-4.33,6c-5.98,0.85-11.49-0.4-16.95-2.89c-13.6-6.18-23.35-3.94-32.74,7.51c-1.49,1.82-2.18,1.9-4.25,0.73
			c-13.56-7.62-27.33-8.02-40.68,0.33c-8.66,5.42-17.82,7.87-27.97,7.44c-19.01-0.8-37.15-5.5-54.9-11.96
			c-14.53-5.29-29.23-9.29-44.92-6.38c-1.24,0.23-2.5,0.65-2.94-1.46c-0.96-4.58-4.62-6.77-8.52-8.42
			c-8.37-3.55-17.12-5.59-26.25-5.06c-4.53,0.27-7.93,1.84-12.25-3.32c-5.94-7.1-19.15-4.79-25.37,2.4
			c-1.42,1.64-2.74,3.35-4.09,5.05c-4.89,6.16-11.22,9.13-19.12,9c-6.49-0.1-13-0.01-19.49,0.17c-7.28,0.21-14.23,1.62-19.97,6.6
			c-0.87,0.76-1.59,1.52-3.01,0.64c-5.18-3.2-10.83-2.64-16.49-1.81c-8.89,1.3-17.77,2.77-26.82,1.57c-1.4-0.19-3.04-0.47-4.13,1.01
			c2.7,1.82,3.21,2.6,6.7,2.31c14.18-1.17,28.18-0.09,42.11,2.55c0.16,0.03,0.33,0,0.5,0c7.85,0.21,15.64-0.63,23.42-1.47
			c2.26-0.24,4.11,0.09,6.18,1.02c12.61,5.66,25.88,7.73,39.49,5.43c6.61-1.12,12.99-3.11,19.54-0.14c1.45-0.32,2.92-0.96,4.35-0.91
			c6.93,0.25,11.64-3.48,15.36-8.64c7.83-10.86,13.94-9.2,22.9-6.4c0.47,0.15,1.15,0.28,1.32,0.62c2.74,5.56,7.33,3.72,11.92,3.48
			c7.71-0.42,15.01,2.05,22.12,4.88c1.33,0.53,2.91,1.01,3.06,2.89c4.97,0.41,9.92,0.93,14.78,2.18c14.49,3.74,28.9,8,44.1,7.81
			c1.24-0.02,2.49,0.77,3.73,1.2c14.06,4.88,28.55,6.23,42.63,1.6c6.13-2.02,11.52-3.79,17.73-1.89c8.22-2.81,16.25-2.04,23.93,1.74
			c3.29,1.62,5.62,1.64,8.33-1.19c6.84-7.14,14.94-9.38,24.37-5.35c3.48,1.49,7.07,2.74,10.61,4.1c3.3-1.58,6.6-3.16,9.9-4.75
			c-2.49-6.87-0.76-10.99,6.02-13.24c9.35-3.11,19.02-2.55,28.6-1.6c4.02,0.4,6.9,1.34,9.43-3.72c2.95-5.9,9.81-7.64,15.94-9.28
			c14.25-3.81,28.74-4.94,43.32-2.44c7.24,1.24,13.78,3.96,16.46,11.88c1.09,3.23,4.33,2.8,6.71,2.94c6.86,0.41,10.98,3.65,13,10.24
			c2.31,7.58,5.69,9.57,13.48,9.95c8.84,0.43,17.54-1.47,26.35-1.09c1.82,0.08,3.68-0.19,5.32,0.9c0.74-0.05,1.49-0.1,2.23-0.15
			c5.19-1.7,10.1-0.38,14.98,1.35c5.12,0.05,11.23,1.41,14.63-2.89c4.64-5.87,10.3-5.9,16.52-5.68c8.15,0.29,16.2,2.13,24.41,1.49
			c6.96-0.54,13.55-2.14,19.26-6.64C1903.01,776.31,1889.45,775.29,1876.11,772.82z"/>
	
		<path class="cloudBackground"
		
		 d="M457.73,114.64c2.52-2.96,5.03-3.37,8.63-2.47c6.43,1.61,12.9,1.07,19.15-1.18c1.37-0.49,3.84-0.78,3.05-3.02
			c-0.53-1.53-2.58-1.32-4.02-0.82c-6.14,2.17-11.43-0.07-16.5-3.17c-3.98-2.43-7.89-4.97-12.23-6.73
			c-9.82-3.99-19.25-3.43-27.86,3.03c-8.08,6.07-17.23,7.81-26.92,6.78c-9.46-1-17.12-4.9-20.69-14.7
			c-2.21-6.06-7.31-9.25-13.21-11.29c-5.22-1.8-10.68-1.87-16.01-2.14c-0.1-0.42-0.21-0.6-0.17-0.74c0.25-0.78,0.55-1.54,0.82-2.31
			c2.64-7.51,1.74-14.46-3.6-20.52c-5.3-6.02-12-8.21-19.81-6.29c-3.86,0.95-7.59,2.47-11.43,3.52c-5.69,1.56-9.25-0.01-11.96-5.21
			c-2.17-4.17-3.31-8.7-4.08-13.29c-1.45-8.55-5.27-15.8-12.02-21.21C275.12,1.88,259.4-1.83,242.07,0.82
			c-10.27,1.57-16.05,8.04-19.16,17.41c-2.08,6.28-2.21,12.76-1.22,19.23c0.31,2.03,0.22,2.88-2.12,3.28
			c-11.57,1.97-16.59,8.39-16.91,20.23c-0.19,6.83,2.93,12.52,5.01,18.62c0.52,1.52,1.3,3.28-0.08,4.72
			c-1.29,1.34-2.84,0.55-4.18-0.04c-8.39-3.73-15.91-1.89-22.75,3.65c-2.14,1.73-3.15,1.27-4.47-0.97c-2.13-3.6-5.62-5.59-9.64-6.57
			c-12.26-2.99-27.4,3.13-33.8,13.94c-1.5,2.53-2.68,2.63-5.4,2.05c-15.37-3.3-30.03-0.95-43.83,6.58c-1.74,0.95-3.84,2.44-3.2,4.56
			c0.73,2.41,3.49,1.78,5.25,1.42c4.15-0.83,8.2-2.16,13.27-3.56c-3.68,5.3-0.65,5.52,2.84,5.57c3.87,0.05,7.52-1.08,11.22-1.93
			c-2.5-3.32-6.52-3.21-10.18-4.34c10.11-3.89,24.55-4.96,35.71-0.89c1.86,0.68,3.97,2.61,6.08-0.47c4.1-5.99,10.47-8.81,17.29-9.82
			c8.59-1.27,17.14-0.94,22.5,7.7c1.3,2.1,2.66,2.09,4.53,1.01c6.57-3.82,13.15-3.94,19.83-0.19c3.74,2.1,4.56-0.34,4.16-3.26
			c-0.42-3.1-1.48-6.1-2.23-9.16c-3.04-12.41,3.49-22.61,15.96-24.32c3.06-0.42,3.56-1.74,3.35-4.19
			c-0.38-4.41,0.55-8.64,2.11-12.67c2.67-6.92,6.7-12.48,14.54-14.38c25.94-6.29,52.46,12.83,54.36,39.29
			c0.83,11.6,5.08,14.73,16.45,12.19c1.28-0.29,2.67-0.14,3.94-0.46c7.19-1.77,13.2,0.4,17.75,5.93c4.73,5.74,5.4,12.41,2.26,19.13
			c-1.22,2.62-0.13,3.19,1.9,3.63c1.13,0.24,2.4,0.1,3.42,0.56c4.44,1.98,10.44,1.48,12.31,7.62c1.1-0.34,2.38-0.42,3.26-1.06
			c5.84-4.21,12.39-5.18,19.4-5.01c7.31,0.17,14.8,1.87,21.89-0.11c8.78-2.46,15.86-0.43,22.7,5.07c6.54,5.27,13.77,5.05,21.08,1.42
			C451.2,120.28,454.92,117.93,457.73,114.64z"/>
	
		<path class="cloudBackground"
		
		 d="M2020.42,169.18c2.52,2.62,5.59,4.78,7.15,8.23c0.76,1.68,2.05,1.99,3.71,1.45
			c14.06-4.59,19.92-2.87,28.67,8.38c6.45,1.54,12.88,3.19,19.37,4.58c4.15,0.89,8.29,0.32,12.2-1.31c1.94-0.81,4.69-1.61,4.39-4.13
			c-0.35-2.93-3.43-2.88-5.6-2.83c-7.84,0.17-13.69-3.33-18.45-9.24c-2.93-3.64-6.09-7.05-9.89-9.83
			c-6.26-4.57-12.78-5.64-19.36-0.93c-2.56,1.83-3.19,0.59-4.2-1.42c-2.25-4.49-5.1-8.58-8.89-11.95c-3.83-3.41-8.3-4.34-13-2.58
			c-4.99,1.88-7.35,5.97-7.85,11.2c-0.12,1.25,0.57,2.67-0.9,3.89c-2.91-2.48-6.05-4.7-10.2-2.98c-5.33,2.2-10.12,5.85-11.14,11.34
			c-1.29,6.9-5.53,8.84-11.19,10.03c-2.6,0.55-5.17,1.22-7.78,1.69c-12.68,2.31-19.21-1.48-23.41-13.53
			c-0.66-1.88-1.25-3.79-1.99-5.64c-3.49-8.69-9.7-12.35-18.84-11.19c-1.04,0.13-2.05,1.21-3.16,0.19
			c3.5-8.16,3.97-10.33,3.76-17.32c-0.37-12.4-7.68-19.93-19.96-21.2c-11.46-1.18-21.99,1.2-31.12,8.08
			c-9.05,6.82-18.36,8.34-29.01,4.4c-7.57-2.8-15.04-1.82-21.94,2.76c-7.35,4.88-10.58,12.05-12.03,20.41
			c-1.51,8.68-4.72,9.83-11.97,4.51c-0.67-0.49-1.32-1.01-1.98-1.52c-9.96-7.84-21.81-5.71-28.34,5.2
			c-0.91,1.53-1.59,2.67-3.68,2.56c-8.34-0.46-15.69,2.77-22.55,6.92c-11.27,6.83-22.27,8.49-34.24,1.29
			c-7.8-4.69-15.97-2.99-23.75,1.32c-3.38,1.87-2.67,2.91,0.06,4.54c5.7,3.41,11.75,4.62,18.21,3.17c3.82-0.86,7.5-0.55,10.42,1.92
			c7.4,6.27,15.1,7.18,23.48,1.95c1.95,5.7,2.66,11.64,7.47,15.58c5.09-5.33,11.72-7.25,18.69-7.9c2.97-0.28,4.72-0.99,6.27-3.71
			c4.74-8.35,17.31-11.12,25.25-5.9c1.39,0.91,2.77,1.85,4.21,2.65c6.79,3.77,10.37,2.31,10.42-5.31
			c0.09-12.56,13.81-26.39,29.33-22.41c13.92,3.57,24.44-0.63,35.17-8.16c9.13-6.41,19.89-6.42,30.25-4.72
			c10.21,1.67,16.6,14.06,14.02,25.12c-0.59,2.55-1.47,5.03-2.23,7.58c13.45-0.72,18.1,1.64,21.59,10.88
			c3.43,2.8,7.55,4.27,11.71,5.17c10.42,2.26,20.66,1.77,30.33-3.31c4.25-8.12,11.34-12.5,18.84-8.78c2.21,1.1,2.15-0.7,2.13-1.98
			c-0.11-6.13,3.46-9.35,8.72-11.29C2012.93,163.13,2016.92,165.54,2020.42,169.18z"/>
	
		<path class="cloudBackground"
		
		 d="M294.6,449.76c4.99-1.41,9.6-3.73,14.26-5.92c6.51-3.04,13.04-4.63,20.18-1.84
			c3.93,1.54,8.13,1.33,12.19-0.18c2.13-0.79,2.5-1.77,0.88-3.55c-4.42-4.84-9.51-8.21-16.36-8.37c-5.69-0.13-11.24,0.79-16.83,1.64
			c-5.73,0.87-11.51,1.66-16.97-1.51c3.9-5.7,3.99-8.29-0.13-13.62c-6.7-8.67-15.03-13.92-27.58-11.1c4.3-4.38,6.72-8.59,5.86-13.99
			c-1.76-11.08-7.4-19.19-18.3-22.76c-11.15-3.65-21.01-1.14-29.09,7.5c-2.2,2.35-4.07,5.01-6.27,7.75
			c-2.87-8.52-10.73-13.01-23.84-13.42c-6.9-0.21-13.46,1.48-19.39,5.34c-5.93,3.86-9.43,9.3-10.81,16.58
			c-5.54-7.89-7.23-9.65-10.91-11.49c-7.83-3.92-12.14-1.3-11.99,7.26c0.01,0.44-0.28,0.89-0.46,1.41
			c-1.31-0.57-2.48-1.22-3.73-1.62c-7.84-2.47-11.98,0.7-11.62,8.82c0.18,4.14,0.36,8.27,0.54,12.41c2.55-0.44,4.83,0.79,7.22,1.32
			c1.09-2.04-0.61-5.45,2.55-6.06c8.53-1.63,14.6,2.49,19.26,9.78c1.96-5.99,5.9-8.89,10.73-11.26c6.79-3.32,14.02-3.54,20.99-2.49
			c7.13,1.08,15.03,1.88,19.13,9.63c0.93,1.76,2.06,0.39,2.73-0.39c6.81-7.85,15.74-9,25.42-8.56
			c16.13,0.73,25.73,14.67,19.53,28.73c11.25,1.18,16.27,3.76,22.12,11.39c5.24,1.61,10.31,3.38,14.09,7.78
			C289.67,450.94,292.26,450.42,294.6,449.76z"/>
	
		<path class="cloudBackground"
		
		 d="M889.51,628.44c-5.49-3.92-11.28-3.61-17-1.03c-4.69,2.11-9.13,4.78-13.66,7.25
			c-9.38,5.11-12.59,4.07-16.99-5.52c-0.9-1.97-1.7-3.98-2.63-5.93c-4.27-8.94-8.9-11.42-18.38-8.94c-3.5,0.91-4.19-0.25-4.93-3.11
			c-1.72-6.67-4.64-12.81-9.03-18.18c-11.39-13.92-28.99-15.05-42.02-2.69c-7,6.64-12.02,14.67-15.87,23.41
			c-1.25,2.85-2.43,3.08-5.5,2.67c-20.55-2.78-39.39-0.5-51.44,19.43c-0.26,0.42-0.6,0.8-0.9,1.19c-4.96,6.32-11.42,8.12-19.11,6.47
			c-6.17-1.32-10.57-5.41-15.05-9.4c-2.73-2.42-5.45-4.83-10.11-4.89c3.62,3.23,4.95,7.19,6.86,10.8
			c4.24,8.01,10.64,12.99,19.66,14.64c9.75,1.78,18.44-1.37,26.76-5.79c2.8-1.49,4.09-1.17,6,1.27c3.16,4.05,6.71,7.85,11.74,9.74
			c2.38-7.54,7.23-13.28,14.38-16.15c9.26-3.71,18.93-6.17,29.13-3.66c3.25,0.8,5.51-0.23,7.03-3.69
			c3.42-7.78,8.14-14.56,14.8-20.24c11.71-10,27.31-5.75,35.52,5.75c3.02,4.23,5.13,8.91,6.52,13.92c0.56,2.04,1.13,3.06,4.04,2.64
			c10.39-1.51,12.89,0.32,16.93,10.18c1.37,3.35,3.18,6.52,4.79,9.78c1.73-1.74,0.72-4.45,2.14-6.32
			c11.18,5.1,16.41,2.74,17.85-7.95c0.89-6.61,5.93-8.87,11.62-5.22c4.22,2.7,8.17,2.35,10.52-0.95
			C895.28,634.92,893.9,631.58,889.51,628.44z"/>
	
		<path class="cloudBackground"
		
		 d="M2303.66,431.83c-10.89,0.13-21.66-0.33-32.56-1.32c-10.85-0.98-21.88-0.1-32.89-2.16
			c-8.13-1.52-16.54,0.5-24.8,1.41c-0.54-0.01-1.07-0.02-1.61-0.04c0.23-0.32,0.47-0.65,0.7-0.97c1.12-4.37-2.06-5.25-5.03-5.57
			c-2.76-0.3-5.69-0.01-8.42,0.56c-11.88,2.52-23.72,5.25-35.58,7.86c-1.99,0.44-4.06,1.02-6.55-0.52c2.35-1.81,4.36-3.24,6.24-4.82
			c4.34-3.66,4.11-5.97-1.17-8.25c-15.6-6.75-31.78-9.71-48.74-6.8c-2,0.34-3.65,0.14-5.66-0.47c-15.66-4.76-30.84-3.31-42.12,8.45
			c-2.35,2.45-4.39,3.28-7.71,2.63c-13.02-2.53-25.1,0.63-36.55,6.79c-1.73,0.93-3.38,2.21-4.68,3.67c-2.86,3.22-2.07,5.72,2,7.01
			c3.04,0.96,6.19,1.2,9.36,1.25c4.24-2.86,8.93-1.43,13.32-0.95c2.51,0.28,3.48-0.16,4.66-2.17c8.34-14.19,17.59-13.4,30.46-11.62
			c5.25,0.73,10.06,0.56,15.11,0.04c13.22-1.36,25.66,1.43,37.46,7.34c2.7,1.35,2.52,3.7,1.3,5.97c-0.53,0.99-1.57,1.71-2.34,2.58
			c-0.95,1.08-2.62,2.13-1.36,3.75c0.94,1.22,2.42,0.48,3.7,0.05c7.72-2.58,15.44-5.17,23.2-7.65c3.15-1.01,6.34-2.03,9.59-2.51
			c3.73-0.55,7.35,0.32,7.67,4.87c0.17,2.4,1.28,2.05,2.45,1.64c4.91-1.72,10.13-1.45,15.14-2.56c4.91-1.08,9.49,1.13,14.14,2.19
			c2.34,0.53,4.7,1.13,6.85,0.28c6.39-2.51,12.66-1.99,19.03-0.08c1.56,0.47,3.29,0.37,4.93,0.53c4.56-3.68,9.68-2.04,14.71-1.65
			c3.57,0.28,7.32,1.72,10.69-0.53c3.79-2.54,8.01-3.52,12.35-3.07c14.52,1.54,28.53-4.85,43.11-2.31
			C2310.93,432.1,2307.23,431.78,2303.66,431.83z"/>
	
		<path class="cloudBackground"
		
		 d="M1394.48,415.21c3.92-0.65,8.01-1.15,11.58-2.73c5.03-2.23,8.14-1.67,10.04,3.81
			c0.56,1.61,1.74,3.24,3.62,3.92c6.91-1.15,7.57-7.11,9.33-12.18c2.16-6.21,7.84-8.01,13.13-4.02c1.03,0.78,1.93,1.73,3.02,2.71
			c3.38-15.89,17.53-20.98,29.59-3.77c1.99-6.91,6.19-10.89,13.46-10.91c1.53-0.01,1.6-1.49,2-2.51
			c2.84-7.29,8.36-11.64,15.95-11.07c8.16,0.61,16.22,2.9,18.83,12.56c0.12,0.43,0.59,0.76,0.9,1.14c2.28-6,3.26-12.16,2.92-18.62
			c-0.59-11.37-8.5-19.63-21.45-22c-11.65-2.13-20.52,2.44-24.84,13.25c-1.19,2.98-2.3,4.34-5.88,4.39
			c-7.59,0.12-12.11,4.41-13.99,11.81c-0.27,1.08,0.17,2.59-1.37,3.49c-5.42-9.03-11.46-16.98-23.58-14.73
			c-10.74,2-13.85,9.8-13.73,20.28c-2.87-2.96-4.94-5.33-7.74-6.86c-6.9-3.76-11.38-2.25-14.19,4.97
			c-1.38,3.56-2.33,7.29-3.86,10.78c-2.61,5.98-5.02,7.01-11.44,5.57c-7.04-1.58-14.07-2.13-22.07,0.32
			c7,1.91,13.47,2.86,18.26,7.23C1386.45,415.23,1390.25,415.92,1394.48,415.21z"/>
	
		<path class="cloudBackground"
		
		 d="M621.18,605.98c-3.39-0.2-6.59,0.64-9.84,1.3c-12.02,2.45-21.16-1.47-26.69-12.19
			c-3.32-6.44-8.34-8.57-15.1-8.07c-5.55,0.41-10.67,2.33-15.79,4.34c-6.35,2.5-9.08,1.17-11.28-5.37c-0.84-2.51-1.5-5.09-2.35-7.6
			c-3.27-9.64-8.34-13.07-18.33-12.35c-13.79,1-23.32,8.79-30.69,19.72c-1.59,2.36-2.72,3.03-5.51,1.8
			c-4.91-2.17-10.17-3.04-15.59-2.18c-8.11,1.28-12.48,5.55-13.16,13.7c-0.24,2.86-1.69,2.53-3.52,2.73
			c-5.78,0.64-10.09,3.17-11.24,9.4c3.51-0.97,7.06-2.18,10.5,0.13c1.83,1.23,2.88-0.03,3.74-1.16c2.81-3.65,6.52-3.55,10.35-2.55
			c1.73,0.45,2.65,0.46,3.4-1.48c3.43-8.89,13.39-11.45,21.64-6.71c6.94,3.98,11.21,3.75,17.25-1.57c7.1-6.25,16.15-8.43,25.94-6.78
			c7.52,1.27,12.74,6.75,13.04,14.41c0.14,3.45,0.28,7,1.16,10.31c1.37,5.17,5.9,4.38,9.85,4.37c1.55-0.5,2.49-1.81,3.12-3.07
			c1.83-3.71,4.27-4.09,8.05-2.79c4.69,1.6,9.61,2.64,14.51,3.46c8.83,1.48,17.86,3.71,26.52-0.02c6.93-2.99,13.77-4.8,21.34-2.79
			C630.33,608.72,627.14,606.33,621.18,605.98z"/>
	
		<path class="cloudBackground"
		
		 d="M2296.02,655.29c-4.39-1.65-8.97-2.5-13.66-2.3c-3.67,0.15-5.63,0.05-4.64-5c1.5-7.63,0.26-15.12-6.95-19.96
			c-6.74-4.53-13.1-1.48-19.2,1.72c-7.12,3.73-13.25,8.86-19.1,14.33c-0.87,0.81-1.38,2.46-3.24,1.75
			c-0.57-3.59-1.44-7.14-3.55-10.22c-2.19-3.19-5.11-4.45-8.54-2.21c-7.46,4.87-12.65,11.73-13.29,20.62
			c-0.32,4.45-0.35,7.63-5.06,9.32c-1.85,0.66-3.1,2.51-2.92,4.81c0.21,2.65,2.25,3.56,4.31,4.26c3.46,1.18,7,2.05,10.72,1.63
			c0.07-1.81,0.05-3.58,0.67-5.39c0.92-2.68,2.2-4.85,5.15-5.45c2.99-0.61,5.27,0.74,6.71,3.21c1.87,3.21,2.8,2.95,4.18-0.4
			c2.09-5.06,5.15-9.6,8.38-14.02c3.21-4.39,7.32-6.75,12.78-5.76c4.7,0.85,7.72,4.13,8.76,8.51c1.15,4.82,2.77,5.69,7.23,3.22
			c3.28-1.82,7.95-4.15,10.55,0.63c2.33,4.28,0.05,7.92-4.28,10.13c-5.19,2.64-8.3,6.67-8.21,12.73c5.06,1.31,8.09,0.11,11.42-5.93
			c1.96-3.54,4.61-5.27,8.17-6.54c5.01-1.78,9.86-4.02,14.29-7c1.36-0.91,3.1-1.87,2.97-3.71
			C2299.52,656.32,2297.5,655.85,2296.02,655.29z"/>
	
		<path class="cloudBackground"
		
		 d="M426.06,498.61c-7.34-3.55-14.86-3.72-22.35,1.56c0.53-5.99,0.66-11.3-1.33-16.38
			c-3.63-9.26-11.32-11.28-18.98-4.97c-3.11,2.56-5.66,5.62-7.88,8.96c-0.97,1.45-1.44,2.59-3.46,0.53
			c-7.1-7.23-14.51-5.85-19.05,3.22c-4.17,8.34-10.24,10.24-18.35,5.76c-8.61-4.76-16.86-4.37-23.86,2.29
			c-5.15,4.91-10.19,8.44-17.62,6.43c-0.72-0.2-1.79-0.3-2.2,0.63c-0.53,1.19,0.47,1.75,1.23,2.37c4.32,3.58,12.35,4.12,17.43,1.16
			c9.89-5.77,16.09-5.23,24.8,2.16c6.27-3.67,12.09-4.27,18.28,0.86c4.85,4.02,10.22,1.75,12.93-4.71c1.42-3.39,3.16-6.18,7.33-6.35
			c2.09-0.08,4.03,0.14,5.35,1.96c2.75,3.79,4.58,2.16,6.59-0.84c1.37-2.04,3.13-3.89,4.98-5.53c4.73-4.18,9.56-3.07,12.62,2.57
			c2.24,4.12,2.7,8.51,2.35,13.04c-0.21,2.75,0.67,3.75,3.33,2.58c2.88-1.27,5.9-0.63,8.86-0.7c6-6,12.75-4.48,20.08-1.33
			C435.33,506.78,432.03,501.49,426.06,498.61z"/>
	
		<path class="cloudBackground"
		
		 d="M10.67,343.67c2.68,0.67,5.34,1.78,8.22,1.16c-0.14-1.7,0.32-3.28,0.94-4.85c1.65-4.22,4.88-5.37,8-2.24
			c3.15,3.16,4.51,2.05,5.98-1.29c1.74-3.97,3.89-7.7,7.05-10.77c6.03-5.86,13.29-4.54,16.03,3.36c1.33,3.84,2.66,4.53,6.3,2.66
			c2.42-1.24,5.93-3.41,8.1-0.09c2.2,3.38-0.1,6.33-2.88,8.53c-3.46,2.74-6.81,5.51-7.75,10.15c3.61,2.54,6.87,0.89,8.35-2.12
			c2.74-5.58,7.82-7.09,12.74-9.37c3.58-1.66,9.75-2.81,8.92-7.03c-0.71-3.62-6.87-3.55-11-3.78c-6.4-0.36-6.4-0.29-5.72-6.51
			c1.24-11.3-7.82-18.46-18.22-14.27c-2.75,1.11-5.43,2.59-7.83,4.33c-4.66,3.38-9.1,7.06-13.88,10.81
			c-0.65-3.24-1.33-6.16-3.04-8.66c-1.74-2.54-4.08-3.57-6.83-1.78c-6.31,4.11-10.64,9.82-10.86,17.45
			c-0.09,3.34-0.48,5.31-3.64,6.56c-1.76,0.7-2.96,2.16-2.76,4.31C7.11,342.5,8.95,343.24,10.67,343.67z"/>
	
		<path class="cloudBackground"
		
		 d="M105.48,404.58c-10.49-12.95-28.26-13.07-39.26-0.29c-1.32-5.19-5.26-7.53-9.9-7.75
			c-4.3-0.2-6.38,3.67-8.34,7.01c-1.6,2.72-3.09,5.51-4.73,8.21c-2.35,3.87-5.28,5.29-10.04,3.62c-8.46-2.97-17.2-5.08-26.31-4.71
			c-4.14,0.16-4.6,0.43-6.9,4.39c8.91-1.09,16.22,2.06,22.99,6.84c0.72-0.71,1.49-0.5,2.27-0.11c9.18,4.51,15.44,1.27,20.7-6.9
			c3.54-5.49,10.22-5.17,15-0.11c1.1,1.16,1.49,2.69,3.82,1.14c10.49-6.99,25.17-5.4,33.94,3.63c3.09,3.18,6.48,5.77,10.62,7.22
			c4.69,1.64,7.43-0.37,7.56-5.31c0.07-2.83,0.05-5.66,0.07-8.5C112.4,411.18,108.63,408.47,105.48,404.58z"/>
	
		<path class="cloudBackground"
		
		 d="M1524.78,408.78c-1.65,4.48,0.33,4.86,3.95,3.96c3.05-0.76,6.21-1.6,8.22,2.03
			c6.27-1.77,12.54-3.54,18.86-5.32c-6.68-12.78-18.37-17.16-29.88-11.42C1526.1,401.67,1526.04,405.34,1524.78,408.78z"/>
	</g>
	<g>
		
		<path class="cloudForeground" 
		
		d="M358.95,121.92c-1.87-6.13-7.87-5.63-12.31-7.62c-1.02-0.45-2.29-0.31-3.42-0.56
			c-2.03-0.44-3.12-1.02-1.9-3.63c3.14-6.72,2.47-13.39-2.26-19.13c-4.55-5.53-10.56-7.7-17.75-5.93c-1.27,0.31-2.66,0.17-3.94,0.46
			c-11.37,2.54-15.62-0.59-16.45-12.19c-1.89-26.46-28.42-45.59-54.36-39.29c-7.84,1.9-11.88,7.47-14.54,14.38
			c-1.56,4.03-2.49,8.27-2.11,12.67c0.21,2.45-0.28,3.77-3.35,4.19c-12.47,1.71-19,11.91-15.96,24.32c0.75,3.05,1.81,6.06,2.23,9.16
			c0.39,2.92-0.43,5.35-4.16,3.26c-6.68-3.75-13.27-3.64-19.83,0.19c-1.87,1.09-3.23,1.09-4.53-1.01c-5.37-8.63-13.91-8.97-22.5-7.7
			c-6.82,1.01-13.19,3.83-17.29,9.82c-2.1,3.08-4.21,1.15-6.08,0.47c-11.16-4.07-25.6-3-35.71,0.89c3.66,1.12,7.68,1.02,10.18,4.34
			c2.58-0.37,4.82,0.55,7.15,1.55c11.36,4.86,22.46,4.86,32.27-3.37c3.25-2.73,4.3-1.98,6.66,0.76c7.43,8.61,16.21,13.58,28.14,9.32
			c4.03-1.44,8.21-0.41,12.1,1.4c5.01,2.33,9.5,5.47,13.97,8.66c7.04,5.01,13.87,10.35,21.82,13.94c6.34,2.86,12.88,4.65,19.82,2.76
			c14.75-4.02,25.68-12.06,28.4-28.72c8.22,6.8,16.2,12.89,26.87,12.8c10.76-0.1,19.05-4.54,23.44-14.74
			c2.88,2.04,5.31,4.1,8.05,5.62C346.97,121.98,352.5,124.84,358.95,121.92z"/>
		
		<path class="cloudForeground"
		
		 d="M1914.28,174.41c0.76-2.55,1.63-5.03,2.23-7.58c2.58-11.06-3.81-23.45-14.02-25.12
			c-10.36-1.69-21.12-1.68-30.25,4.72c-10.74,7.53-21.26,11.73-35.17,8.16c-15.52-3.98-29.24,9.86-29.33,22.41
			c-0.05,7.62-3.63,9.09-10.42,5.31c-1.45-0.81-2.83-1.74-4.21-2.65c-7.94-5.22-20.51-2.44-25.25,5.9c-1.55,2.72-3.3,3.43-6.27,3.71
			c-6.97,0.65-13.6,2.58-18.69,7.9c9.58,13.65,30.32,16.41,42.55,5.49c2.02-1.8,3.25-1.95,5.42-0.43
			c6.42,4.48,13.46,7.87,20.5,11.29c18.06,8.78,34.1,5.39,48.68-7.6c2.23-1.99,4.61-3.98,6.26-6.41c1.98-2.91,3.89-2.89,7.03-2.01
			c10.86,3.06,22.07,3.69,30.15-5.46c9.53-10.8,19.61-13.99,32.39-6.76C1932.37,176.04,1927.72,173.69,1914.28,174.41z"/>
		
		<path class="cloudForeground"
		
		 d="M251.79,429.83c6.2-14.07-3.4-28-19.53-28.73c-9.68-0.44-18.61,0.71-25.42,8.56
			c-0.67,0.78-1.8,2.15-2.73,0.39c-4.11-7.75-12-8.55-19.13-9.63c-6.97-1.05-14.2-0.83-20.99,2.49c-4.84,2.36-8.77,5.27-10.73,11.26
			c-4.66-7.29-10.73-11.41-19.26-9.78c-3.16,0.6-1.46,4.01-2.55,6.06c-2.39-0.53-4.67-1.76-7.22-1.32
			c-1.16,3.66-4.08,3.98-7.26,3.82c-0.02,2.83,0,5.67-0.07,8.5c-0.13,4.94-2.87,6.95-7.56,5.31c-4.14-1.44-7.53-4.04-10.62-7.22
			c-8.77-9.02-23.45-10.62-33.94-3.63c-2.33,1.55-2.72,0.03-3.82-1.14c-4.78-5.06-11.46-5.38-15,0.11
			c-5.27,8.17-11.53,11.41-20.7,6.9c-0.79-0.39-1.55-0.6-2.27,0.11c2.88,2.43,6.38,3.49,9.95,4.28c11.97,2.68,23.76,1.72,35.25-2.36
			c2.31-0.82,3.22-0.91,4.56,1.49c10.78,19.3,34.57,23.95,52.12,10.35c5.68,9.79,10.33,13.72,19.86,16.8
			c11.21,3.62,15.72,1.48,20.13-9.52c1.42-3.54,2.48-7.26,4.82-10.37c4.5-5.98,10.93-5.6,14.55,0.76c2.92,5.13,6.6,9.63,11.7,12.74
			c12.4,7.56,25.46,6.14,37.82,0.9c6.22-2.64,10.21-2.94,15.53,1.4c5.31,4.32,6.58,3.78,11.3-1.33c3.68-3.98,8.24-5.36,13.33-5.81
			C268.07,433.59,263.04,431.01,251.79,429.83z"/>
		
		<path class="cloudForeground"
		
		 d="M829.3,638.4c-2.91,0.42-3.48-0.6-4.04-2.64c-1.38-5.01-3.49-9.69-6.52-13.92
			c-8.21-11.5-23.82-15.75-35.52-5.75c-6.65,5.68-11.38,12.46-14.8,20.24c-1.52,3.46-3.78,4.49-7.03,3.69
			c-10.2-2.51-19.87-0.05-29.13,3.66c-7.15,2.87-12,8.61-14.38,16.15c8.96,5.99,18.68,7.29,29,4.64c2.05-0.53,3.39-1.06,4.55,1.69
			c1.99,4.72,6.34,7.08,10.89,8.96c12.5,5.16,23.41,1.88,33.27-6.44c6.97-5.89,14.77-7.06,23.35-4.63
			c5.74,1.63,11.45,3.43,17.27,4.73c8.19,1.83,13.24-1.89,14.81-10.41c-1.61-3.25-3.42-6.43-4.79-9.78
			C842.19,638.72,839.68,636.89,829.3,638.4z"/>
		
		<path class="cloudForeground"
		
		 d="M1819.36,787.14c-8.81-0.38-17.51,1.52-26.35,1.09c-7.79-0.38-11.16-2.36-13.48-9.95
			c-2.01-6.59-6.14-9.83-13-10.24c-2.38-0.14-5.62,0.28-6.71-2.94c-2.68-7.92-9.21-10.64-16.46-11.88
			c-14.58-2.49-29.08-1.37-43.32,2.44c-6.12,1.64-12.98,3.38-15.94,9.28c-2.53,5.06-5.41,4.12-9.43,3.72
			c-9.58-0.94-19.25-1.51-28.6,1.6c-6.77,2.26-8.51,6.37-6.02,13.24c9.18-1.32,18.26-0.15,27.37,0.93
			c15.97,1.9,31.78,6.22,48.09,3.61c1.58-0.25,2.94,0.46,4.3,1.06c11.22,4.94,22.52,5.45,33.92,0.65c1.57-0.66,3.03-1.05,4.75-0.14
			c11.02,5.84,23.03,7.48,35.25,7.93c9.16,0.33,18.36,0.45,27.23-2.39c3.3-1.06,6.55-2.64,3.72-7.13
			C1823.04,786.95,1821.18,787.21,1819.36,787.14z"/>
	
		<path class="cloudBackground"
		
		 d="M2228.26,441.73c-6.37-1.91-12.64-2.43-19.03,0.08c-2.15,0.84-4.52,0.25-6.85-0.28
			c-4.65-1.06-9.24-3.28-14.14-2.19c-5.01,1.11-10.23,0.84-15.14,2.56c-1.17,0.41-2.28,0.76-2.45-1.64
			c-0.33-4.55-3.95-5.41-7.67-4.87c-3.25,0.48-6.44,1.5-9.59,2.51c-7.76,2.48-15.47,5.07-23.2,7.65c-1.28,0.43-2.76,1.16-3.7-0.05
			c-1.25-1.62,0.41-2.67,1.36-3.75c0.77-0.88,1.8-1.59,2.34-2.58c1.22-2.27,1.4-4.61-1.3-5.97c-11.79-5.91-24.24-8.71-37.46-7.34
			c-5.05,0.52-9.86,0.69-15.11-0.04c-12.87-1.78-22.13-2.57-30.46,11.62c-1.18,2.01-2.15,2.45-4.66,2.17
			c-4.39-0.49-9.09-1.91-13.32,0.95c1.48,0.53,3.19,0.44,3.76,2.59c1.54,5.78,6.3,7.35,11.42,8.05c6.96,0.95,13.95,0.58,20.91-0.07
			c4.07-0.38,7.62-0.17,11.15,2.62c3.79,3.01,8.63,4.17,13.51,4.68c10.14,1.05,19.86-1.54,29.54-3.78
			c11.09-2.57,21.88-3.05,32.92,0.51c8.72,2.82,17.76,2.19,26.61-0.07c4.57-1.17,9.13-2.97,11.8-6.97c2.13-3.19,3.85-2.72,6.83-1.55
			c12.98,5.09,25.37,3.84,36.88-4.3C2231.55,442.1,2229.82,442.2,2228.26,441.73z"/>
	
		<path class="cloudBackground"
		
		 d="M549.11,615.79c-0.88-3.31-1.02-6.86-1.16-10.31c-0.31-7.66-5.52-13.14-13.04-14.41
			c-9.78-1.65-18.83,0.54-25.94,6.78c-6.04,5.31-10.31,5.55-17.25,1.57c-8.25-4.73-18.21-2.18-21.64,6.71
			c-0.75,1.94-1.67,1.93-3.4,1.48c-3.84-1-7.54-1.1-10.35,2.55c-0.87,1.13-1.91,2.39-3.74,1.16c-3.44-2.31-6.98-1.1-10.5-0.13
			c-9.2-0.85-9.2-0.85-13.36,2.11c10.23,3.78,20.23,3.89,30.38,0.68c5.33-1.69,8.06-0.54,10.55,4.45c1.62,3.26,2.72,6.79,4.26,10.1
			c2.64,5.67,6.48,9.4,13.46,8.95c11.44-0.74,19.62-6.69,25.86-15.67c1.86-2.67,3.01-2.99,5.72-1.21c3.87,2.54,8,4.79,12.24,6.64
			c12.64,5.5,18.73,3.85,27.76-7.07C555.01,620.17,550.48,620.96,549.11,615.79z"/>
	
		<path class="cloudBackground"
		
		 d="M1528.73,412.74c-3.63,0.9-5.6,0.51-3.95-3.96c1.26-3.44,1.32-7.1,1.15-10.74c-2.98-1.96,0.78-3.92,0.01-5.88
			c-0.31-0.38-0.78-0.71-0.9-1.14c-2.62-9.66-10.67-11.95-18.83-12.56c-7.59-0.57-13.11,3.78-15.95,11.07
			c-0.4,1.03-0.47,2.51-2,2.51c-7.28,0.03-11.47,4-13.46,10.91c-12.07-17.21-26.21-12.12-29.59,3.77c-1.09-0.98-1.99-1.93-3.02-2.71
			c-5.29-3.98-10.97-2.19-13.13,4.02c-1.76,5.07-2.42,11.03-9.33,12.18c5.9,6.77,12.96,8.09,20.25,3.35
			c3.74-2.43,7.2-5.34,10.54-8.31c9.22-8.19,18.85-10.79,30.4-4.35c6.83,3.81,14.55,6.06,22.49,3.36c2.72-0.92,4.06-0.32,5.99,1.43
			c5.41,4.89,11.74,5.9,18.52,3.19c3.07-1.22,6.03-2.74,9.03-4.12C1534.94,411.14,1531.78,411.99,1528.73,412.74z"/>
	
		<path class="cloudBackground"
		
		 d="M2275.29,658.58c-2.6-4.78-7.27-2.45-10.55-0.63c-4.46,2.47-6.08,1.6-7.23-3.22
			c-1.04-4.38-4.07-7.66-8.76-8.51c-5.46-0.99-9.57,1.38-12.78,5.76c-3.24,4.42-6.3,8.97-8.38,14.02c-1.38,3.35-2.31,3.61-4.18,0.4
			c-1.44-2.47-3.72-3.82-6.71-3.21c-2.94,0.6-4.23,2.77-5.15,5.45c-0.62,1.8-0.61,3.57-0.67,5.39c0.99,0.08,1.98,0.27,2.96,0.22
			c3.74-0.21,6.4,0.17,7.11,5.05c0.66,4.48,4.59,6.82,8.99,7.45c8.68,1.23,15.97-1.46,21.7-8.25c1.1-1.3,1.41-3.37,3.39-3.93
			c2.47,2.53,4.19,5.73,7.75,6.86c-0.08-6.06,3.03-10.09,8.21-12.73C2275.34,666.5,2277.62,662.86,2275.29,658.58z"/>
	
		<path class="cloudBackground"
		
		 d="M408.21,515.92c-2.66,1.17-3.54,0.17-3.33-2.58c0.35-4.53-0.12-8.92-2.35-13.04
			c-3.06-5.64-7.89-6.76-12.62-2.57c-1.85,1.64-3.6,3.49-4.98,5.53c-2.01,2.99-3.84,4.63-6.59,0.84c-1.32-1.82-3.26-2.05-5.35-1.96
			c-4.18,0.17-5.91,2.96-7.33,6.35c-2.71,6.46-8.08,8.73-12.93,4.71c-6.19-5.13-12-4.53-18.28-0.86
			c7.07,10.68,19.53,11.09,37.06,1.22c10.33,21.74,37.17,18.27,45.57,1.67C414.11,515.29,411.09,514.65,408.21,515.92z"/>
	
		<path class="cloudBackground"
		
		 d="M2035.46,192.07c7.84-3.7,15.93-5.23,24.49-4.84c-8.75-11.25-14.62-12.96-28.67-8.38
			c-1.65,0.54-2.94,0.23-3.71-1.45c-1.57-3.45-4.64-5.61-7.15-8.23c-3.51-3.65-7.49-6.05-12.82-4.08
			c-5.26,1.94-8.83,5.17-8.72,11.29c0.02,1.28,0.08,3.07-2.13,1.98c-7.5-3.73-14.58,0.65-18.84,8.78c1.74,0.64,3.41-0.42,5.28,0.05
			c9.21,2.34,18.11,0.81,26.57-3.13c2.78-1.29,4.13-0.94,5.96,1.49C2021.45,193.17,2028.14,195.53,2035.46,192.07z"/>
	
		<path class="cloudBackground"
		
		 d="M28.03,350.73c0.29,2.04,2.62,3.36,4.76,4.03c6.01,1.88,11.93,0.84,16.1-3.45c4.15-4.28,7.27-6.84,11.77-1.03
			c0.94-4.64,4.29-7.41,7.75-10.15c2.78-2.2,5.08-5.15,2.88-8.53c-2.16-3.32-5.68-1.14-8.1,0.09c-3.64,1.87-4.97,1.18-6.3-2.66
			c-2.74-7.9-10-9.22-16.03-3.36c-3.17,3.08-5.31,6.81-7.05,10.77c-1.47,3.34-2.83,4.45-5.98,1.29c-3.12-3.13-6.34-1.98-8,2.24
			c-0.61,1.57-1.07,3.14-0.94,4.85C23.32,344.63,27.2,344.93,28.03,350.73z"/>
	
		<path class="cloudBackground"
		
		 d="M1436.88,775.17c-7.1-2.83-14.4-5.3-22.12-4.88c-4.58,0.25-9.17,2.08-11.92-3.48
			c-0.17-0.34-0.85-0.47-1.32-0.62c-8.97-2.8-15.07-4.47-22.9,6.4c-3.72,5.16-8.43,8.89-15.36,8.64c-1.44-0.05-2.9,0.59-4.35,0.91
			c5.26,1.68,10.72,1.78,15.62-0.47c8.04-3.7,16.02-5.21,24.61-2.42c1.39,0.45,2.96,0.38,4.46,0.43
			c12.15,0.37,24.23-1.01,36.34-1.61C1439.79,776.18,1438.21,775.7,1436.88,775.17z"/>
	
		<path class="cloudBackground"
		
		 d="M1595.17,789.51c-2.71,2.83-5.04,2.81-8.33,1.19c-7.67-3.78-15.7-4.55-23.93-1.74
			c17.73,4.06,35.7,5.06,53.78,3.77c4.75-0.34,9.51-1.37,13.45-4.47c-3.54-1.36-7.13-2.61-10.61-4.1
			C1610.12,780.13,1602.01,782.37,1595.17,789.51z"/>
	
		<path class="cloudBackground"
		
		 d="M1826.91,787.89c4.87,1.79,9.9,1.84,14.98,1.35C1837.02,787.5,1832.1,786.19,1826.91,787.89z"/>
	</g>
</g>
</svg>
