<svg id="Layer_1" data-name="Layer 1" xmlns="http://www.w3.org/2000/svg" viewBox="0 0 1798.33 557.1"><defs><style>.cls-1{opacity:0.01;}.cls-2{fill:#fff;}.cls-3{fill:#8aa8b7;}</style></defs><title>fifthmtns</title><g class="cls-1"><rect class="cls-2" width="1.12" height="1.12"/><rect class="cls-2" x="1797.21" width="1.12" height="1.12"/></g><path class="cls-3" d="M896.71,536.54s7-14.15,9.77-16.94,4.78-7.57,7.37-10.37,10.37-15,11.76-15.74,1.6,5.18,3,4.38,5.19-5.2,7.58-6.79,5.38-.19,5.38,1.41,4.19-1.79,5.18-3.39,3.19-1.59,5.39,0,4.78,4.39,5.78,3,2,1.4,4.58.6a34.87,34.87,0,0,0,6.58-2.79c1.8-1,6-3.39,7.38-2s2,5.59,3.19,5,2-3.39,3.58-3.19,3.19,3.59,4.59,3.79,8,13.75,8.37,15.54,6.58,4,8.17,3a10,10,0,0,1,6.18-1.78c3.19,0,6.78,2.79,8.18,4.19s15.55,4,16.54,3.19,3.59-6,6.38-8,4.59-8.37,6.38-8.37,3.39,4.39,4,3.39,4.58-5.38,4.58-8.77.4-6.78,1.6-7.58,2.39-4.18,3.78-3.39,2,6.18,3.39,5,3.39-6,4.19-5.11,1.2,3.71,3.79,3.91,4.78,5.78,6.18,6,2.59-3.81,3.78-3.6,2.6,3.8,4,4.2,6.18,3.19,6.78,2.19,3.19-2.79,4.78-.79,3.79,2.79,4.39,2.39,8.77.4,9.37,0,2.39,3.59,4.18,2.39,2.79-3.79,5.19-4,4.78-.79,6-.2,2.39,3.59,3.58,3.19,2.4-2.39,3.39-2.39,2.79,2.79,4.19,2.19,4.39-1.79,5.38-1.19,4.19,1,5.78,0,4.59.4,6.38,0,7.58-2.59,8.37-4.59,4-2.39,5-1.39-1.6,3.39,0,3.19,4.38-4,4.38-5.2,4.79,0,4.79,0,3.39,2.61,4.58,2.61,6,3.19,11.56,3.58,16,10,19.14,10.77,9.77,11.76,13.36,14.75,8.37,13,11.36,13,9.17,1.79,3.79,3.78-44.66,11.57-58.21,13.56-43.26,3.79-63.59,3.19-60.2,2-76.15.12-68.57-3.71-91.3-4.51-57.21.8-57-3.58S893.52,537.54,896.71,536.54Z"/></svg>