<svg id="Layer_1" data-name="Layer 1" xmlns="http://www.w3.org/2000/svg" viewBox="0 0 1798.33 604.31"><defs><style>.cls-1{opacity:0.01;}.cls-2{fill:#fff;}.cls-3{fill:#131e28;}</style></defs><title>firstMTNS</title><g class="cls-1"><rect class="cls-2" width="1.12" height="1.12"/><rect class="cls-2" x="1797.21" width="1.12" height="1.12"/></g><path class="cls-3" d="M0,591.2s118,5.25,245.4-.75,155.29-4.87,172.71-7.12,53.95-6.18,69.69-6.18,37.65,3.37,40.46,0-7.87-11.8-16.3-15.73-19.67-9-28.1-12.37-25.29-12.92-27.53-16.29-16.3-12.93-19.11-18-10.68-20.23-12.93-24.16-2.24-9-9.55-10.12-23.6-2.81-28.1-6.74-12.36-14.61-18.54-19.11-21.36-16.3-27-19.11-20.23-11.8-27.54-19.1-16.29-14.05-19.1-18.55-8.43-6.74-10.12-7.3-15.84-6.19-20-10.12-12.59-14-16-16.86-9-3.93-12.92-6.74-7.87-5.62-11.8-7.87-8.43,0-12.37-8.43-6.18,2.25-9,0-9.55-1.53-12.92-3.3a91.49,91.49,0,0,1-10.68-6.82c-3.93-2.81-11.24-8.43-14.61-10.11s-11.8-9.56-14.61-10.68-6.19-5.06-7.87-6.18-5.06,1.68-6.74,0a4,4,0,0,0-5.62-.28c-1.69,1.4-9,12.08-13.49,17.7S100,336.06,98.91,350.11s-11.24,27.54-16.86,34.28-10.12,15.74-21.92,16.3-25.85-.56-32-6.74-14-24.17-16.3-28.66S0,349.55,0,349.55Z"/><path class="cls-3" d="M1798.33,400.68c-7.58-5.4-15.59-11.78-19.92-16.66-8.65-9.74-18.8-15-22.93-20.61s-20.3-21.35-23.31-26.22-9-6.37-12-6.75-3.76-3.37-3.76-4.49-3-5.62-9-8.62-6-8.24-8.27-8.24-9.4-2.25-15.79-4.5-11.28,4.12-16.91,12-10.91,8.24-18.8,13.86-16.92,16.49-28.95,27-35.33,38.59-57.51,53.2-31.58,20.61-48.87,27.06a412.58,412.58,0,0,0-51.5,22.77c-21.8,11.23-24.44,16.48-29.7,21.27s-32.7,27.06-40.6,31.55-16.54,1.5-19.54,1.5-12.79-3.74-17.67-3-10.15,3-15,4.87-9.4,0-15.79,0-21.8,6.55-25,8.05-7.7,8.62-11.09,10.27-17.48,5.09-20.48,6.22-13.91,2.81-16,3-6,2.25-11.47,4.87-14.09.94-15-1.31-7.15.94-8.27-1.12-4.89.19-8.09,1.87-5.26-4.68-6.39-5.62-2.25,3-2.63,6.75-3.19,3.18-4.7,3.18-5.07,2.62-8.45,5.62-4.7,3-5.08,5.43-2.26,1.13-4.51,1.5-3-1.5-5.26-1.5-3.39,3.94-6.39,5.62-3.58-3-4.73-3-2.42,1.31-3,3.93-1.88,0-4.14-1.5,0,0-4.88,3.56-16,3.93-16,3.93c-6.58,6,56.2,2.44,77.06,7.5s45.68,4.49,96.43,9,95.86,8.43,161.27,11.24c46.76,2,231.27-13,332.68-21.76Z"/></svg>