<?xml version="1.0" encoding="utf-8"?>
<!-- Generator: Adobe Illustrator 23.0.3, SVG Export Plug-In . SVG Version: 6.00 Build 0)  -->
<svg version="1.1" id="Layer_1" xmlns="http://www.w3.org/2000/svg" xmlns:xlink="http://www.w3.org/1999/xlink" x="0px" y="0px"
	 viewBox="0 0 1798.3 1011.6" >
<style type="text/css">
	.leftMtn, .rightMtn{fill:#131e28;}
	.markers{fill:#fff; opacity: 0.001;}
</style>
<g>

	<path class="leftMtn"
	
	d="M374.5,999.6c-4.5,0-7.4,5-11.1-1.4c-3.7-6.4-8.6-9.5-8.8-8c-0.2,1.6-3.9,4.7-3.9-2.6c0-7.3-1.6-10.4-4.1-13
		c-2.5-2.6-3.3,1-7.4-2.6c-4.1-3.6-4.9-7.3-9.4-11.5c-4.5-4.2-4.7-26.4-7.1-32.7c-2.5-6.2-38-28.2-41.3-30.8
		c-3.3-2.6-9-9.9-9.8-12.5c-0.8-2.6-6.6,0-7.4-2.6c-0.8-2.6-12.7-10.9-13.5-16.1c-0.8-5.2-8.2-15.6-8.2-15.6s-2.4,1.6-3.7-2.1
		c-1.2-3.6,2-7.3-3.7-14.1c-5.7-6.8-8.2-9.4-9.4-13.5c-1.2-4.2-14.6-10.8-14.6-16s-19.8-16.2-22.3-23c-2.5-6.8,16.8-23.2,17.3-26.8
		c1.5-10.5-17.5-20.8-22-32.8c-4.5-12,9.2-16,7.1-28c-2.1-12,2.5-16.7,3.3-23.4c0.8-6.8,3.7-15.1-1.6-18.2s43.9-13.5,44.2-18.1
		c0.8-14.4-58.3-8.4-78.2-30.4c-8.9-9.8-19.7-13.5-39.4-18.2c-19.7-4.7-37.8-5.7-43.9-9.9c-6.2-4.2-10.3,2.2-18.9-8.8
		c-8.6-11-13.1-35.2-29.1-43.7L0.2,512.9v498.6h421.4c0,0-25.6-12-41-12C378.1,999.6,379,999.6,374.5,999.6z"/>
	<path
	
	 class="rightMtn"
	 
	 d="M1777.6,476.9c-12.3,9.3-15.7,35.8-22.3,47.8c-6.6,12-9.7,5.1-14.5,9.6c-4.7,4.6-18.5,5.7-33.6,10.8
		c-15.1,5.1-22,11.4-30.2,20s-64,32.5-59.9,33.3c29.3,5.3,37.9,16.4,33.9,19.8c-4.1,3.4-1.9,12.5-1.3,20c0.6,7.4,4.1,12.5,2.5,25.7
		c-1.6,13.1-6,10.3-9.4,23.4c-3.5,13.1,61.8,3,79.2,16.5c6.5,5-26.1,32.4-26.4,40.4c-0.3,8,13.3,7.3,11.4,14.7
		c-1.9,7.4-35.3,22.8-35.3,28.5c0,5.7-44.8,10.6-45.8,15.1c-0.9,4.6-2.8,7.4-7.2,14.8c-4.4,7.4-1.9,11.4-2.8,15.4
		c-1,4-2.8,2.3-2.8,2.3s-5.7,11.4-6.3,17.1c-0.6,5.7-3.5,6.3-4.4,10.8c-0.9,4.6-5.3,4-6,6.8c-0.6,2.9-5,0-5.7,2.9
		c-0.6,2.9-5,10.8-7.5,13.7c-2.5,2.9-3.8,9.7-4.4,13.1c-0.6,3.4-3.8,5.1-4.4,0.6c-0.6-4.6-3.5-2.9-5.7-2.9c-2.2,0-5,8-6.9,10.3
		c-1.9,2.3,0.3,10.8-1.6,17.7c-1.9,6.8-3.1,10.8-6.3,16s-4.4,10.3-7.9,14.8c-3.5,4.6-4.1,8.6-7.2,12.5c-3.1,4-3.8,0-5.7,2.9
		c-1.9,2.9-3.1,6.3-3.1,14.3c0,8-2.8,4.6-3,2.9s-3.9,1.7-6.7,8.7c-2.8,7-20.4,1.5-23.8,1.5c-3.5,0-31.3-3.4-31.9,0
		c-0.6,3.4-140.3,13.1-140.3,13.1h474.2V465.5L1777.6,476.9z"/>
</g>
<g class="markers">
	<rect class="st3" width="1.1" height="1.1"/>
	<rect x="1797.2" class="st3" width="1.1" height="1.1"/>
</g>
</svg>
