<svg id="Layer_1" data-name="Layer 1" xmlns="http://www.w3.org/2000/svg" viewBox="0 0 1798.33 560.03"><defs><style>.cls-1{opacity:0.01;}.cls-2{fill:#fff;}.cls-3{fill:#6d8fa3;}</style></defs><title>fourthmtns</title><g class="cls-1"><rect class="cls-2" width="1.12" height="1.12"/><rect class="cls-2" x="1797.21" width="1.12" height="1.12"/></g><path class="cls-3" d="M670.82,504.84c-3.38,0-8.81-11-10.31-10.43S648,486.3,645,486.86s-12.55-.37-13.86-1.31a11.13,11.13,0,0,0-5.8-1.5c-1.32.19-2.63-2.62-4.69-2.62s-2.43,1.87-3.93,3.93-3.94-1.5-4.5-2.06-4.31,4.69-6,5.88-3.94,3.11-6.37,5.23-3,2.75-4.68,1.82-8.81-11.62-9.37-11.62-3.19,3-5.06,3.56-3.18-.93-4.68-2.43-4.87-2.25-6.56-2.25-4.68-7.31-4.87-6.74-6.18,5.8-7.12,5.8-3,2.81-4.44,3.94-4.55-.19-5.48-1.31-3.38-3.94-6.19-3.94-8.24,3.94-9.93,5.25-6,4.31-7.3,6.18-5.06-.94-5.81-2.25-3-4.87-5.43-4.87-6.56,4.5-7.55,5.81-2.19,1.5-5.38,2.24-9.74,8-9.74,8-2.62,9-6,12.94,7.49,13.48,15.17,21.73,23,9,34.84,16.11,28.85,5.24,36.16,5.62,24.16-5.06,33-9.37,27-11.62,37.09-16.49S674.19,504.84,670.82,504.84Z"/><path class="cls-3" d="M1293.4,523.22c-5.38-6-21.83-12.26-29.3-18.24s-9.27-8.08-12-10.47-6.88-6.88-11.06-6.28-7.48-2.09-12.56-2.69a144.81,144.81,0,0,1-16.45-3c-4.78-1.2-5.38-5.08-8.67-8.67s-4.49-5.38-8.37-5.68-5.38-2.39-7.48-1.8-6.58,10.17-6.81,13.46-6.64,3.89-14.42,12.22A124.71,124.71,0,0,0,1151.67,511c-3.59,5.38-6,4.48-16.74,13.15s-33.49,22.43-33.49,22.43-3,.3-7.48,5.68,38,7.48,50.83,7.78,49.64-1.5,66.09-7.18,56.81-14.35,63.39-17S1298.78,529.2,1293.4,523.22Z"/></svg>