<svg id="Layer_1" data-name="Layer 1" xmlns="http://www.w3.org/2000/svg" viewBox="0 0 1798.33 596.33"><defs><style>.cls-1{opacity:0.01;}.cls-2{fill:#fff;}.cls-3{fill:#131e28;}</style></defs><title>lakerock</title><g class="cls-1"><rect class="cls-2" width="1.12" height="1.12"/><rect class="cls-2" x="1797.21" width="1.12" height="1.12"/></g><path class="cls-3" d="M871.43,593.84s15.45-2.5,20.9-4.72,8-7.15,13.44-7.69,4,1.24,9.71-2.77,7-2.87,15.43-6.22,7-4.73,11.45-6.22,6.23-4.48,10.46-4.48,9.11,5.22,12.15,5.47,5,.5,10,3,3,6,9.71,5.47a130.32,130.32,0,0,1,13.19-.49c5.47,0,8.71,4.23,12.44,4.23s14.19,1.56,16.43,2,15.18,4.45,17.92,5.45,7.72,3.23,7,5.22a14.3,14.3,0,0,1-3.23,4.23s-52.52-3-90.85-2S866.2,597.08,871.43,593.84Z"/></svg>