<svg 
    class='flag' 
    data-name="Layer 1" 
    xmlns="http://www.w3.org/2000/svg" 
    viewBox="0 0 4205.882 1293.889">
    
        <defs>
            <style>
                .cls-1{fill:#fff; position: absolute; z-index: 9999:}
            </style>
        </defs>
        
  <title>lets-ride-flag</title>
    
    <path 
        
        class="cls-1" 
        d="M485.211,332.544l50.672,4.11V810.845l167.741-8.8v54.877L485.211,871.921Z"/>
        
    <path 
        class="cls-1" 
        d="M963.382,619.784l-152.6-.239V796.432l170.072-8.917V837.9L760.112,853.049V354.839l212.007,17.194v50.522L810.784,412.087V567.135l152.6,2.679Z"/>
        
    <path 
        class="cls-1" 
        d="M1130.53,433.489l-119.4-7.72V375.2l290.635,23.571v45.794L1181.784,436.8V824.1l-51.254,3.518Z"/>
        
    <path 
        class="cls-1" 
        d="M1428.15,402.518c-13.4,48.755-38.441,111.255-54.749,138.319l-32.616,3.264c12.813-35.456,27.957-97.625,34.364-140.588Z"/>
        
    <path 
        class="cls-1" 
        d="M1474.156,742.494c22.716,12.787,55.914,22.475,90.861,20.557,51.836-2.844,82.123-29.985,82.123-66.848,0-34.153-20.968-53.515-73.969-72.675C1509.1,601.161,1469.5,567.65,1469.5,512.4c0-61.066,50.672-102.195,126.971-95.821,40.188,3.358,69.309,14.4,86.783,24.875l-13.978,37.075a176.324,176.324,0,0,0-74.553-22.225c-53.583-3.62-73.968,26.363-73.968,52.592,0,35.922,23.879,54.176,78.046,75.39,66.4,24.753,100.178,54.153,100.178,106.682,0,55.181-44.848,106.112-137.454,112.675-37.858,2.683-79.212-5.382-100.179-17.985Z"/>
        
        <path 
            class="cls-1" 
        
        d="M1891.756,451.005c25.627-2.311,62.321-1.7,97.266,1.168,54.167,4.453,89.113,14.914,113.575,33.587,19.8,14.481,30.869,35.149,30.869,57.719,0,38.631-32.617,63.957-73.969,74.411v1.351c30.287,8.069,48.342,29.153,57.661,59.678,12.814,40.521,22.132,68.2,30.286,78.891l-52.419,3.6c-6.407-8-15.143-33.3-26.209-70.4-11.649-41.561-32.616-57.253-78.629-58.446l-47.759.18V771.884l-50.672,3.479ZM1942.428,601.3l51.837.564c54.166.59,88.529-21.746,88.529-56.035,0-38.742-36.693-58.126-90.277-62.187-24.462-1.647-41.936-.925-50.089.44Z"/>
        
        <path 
            class="cls-1" 
        
        d="M2255.775,476.138V750.373l-50.672,3.479V472.028Z"/>
        
        <path 
            class="cls-1" 
        
        d="M2344.3,486.8a1070.386,1070.386,0,0,1,107.75,3.437c72.805,5.986,124.641,19.979,159.005,40.619,34.946,19.831,55.332,45.5,55.332,79.9,0,34.722-19.8,63.816-56.5,85.436-36.693,22.967-97.267,38.643-173.565,43.982-36.112,2.527-66.4,3.5-92.025,3.342Zm50.672,228.075c12.814.809,31.451.168,51.254-.91,108.332-5.9,167.159-43.151,167.159-102.742.582-52.034-51.837-88.6-159-95.764-26.21-1.753-46.012-1.586-59.408-.59Z"/>
        
        <path 
            class="cls-1" 
        
        d="M2935.469,622.86l-152.6-.238v70.414l170.07-8.917v18.395L2732.2,717.667V514.776l212.006,17.193v18.537l-161.334-10.468v61.721l152.6,2.679Z"/>
        
        <path 
            class="cls-1"
        d="M4205.882,602.56l-27.19-3.912-.6-2.044-6.6,1.01L17.273,0,1.463,57.7l209,30.066V1204.112L0,1236.336l16.786,57.553L4172.008,657.658l18.064,2.6,1.534-5.6,3.276-.5-1.618-5.547ZM259.458,1196.609V94.812l3710.1,533.722Z"/>
</svg>