<svg id="Layer_1" data-name="Layer 1" xmlns="http://www.w3.org/2000/svg" viewBox="0 0 267.9 153.6"><defs><style>.cls-1{fill:#33aeae;}.cls-2{fill:#fff;}</style></defs><title>revolution-right</title><path class="cls-1" d="M434.2,17.4a5.4,5.4,0,0,0,4.1-4.9c0-2.2-1.8-3.5-4.1-3a5.1,5.1,0,0,0-4,4.8A3.1,3.1,0,0,0,434.2,17.4Z" transform="translate(-269.3)"/><path class="cls-1" d="M531.5,22.3l-6.4,10-.2.3c-4.9,8.6-6.4,10.5-8.6,11.6-.7.5-2.1,1.2-2.9.6s-.9-2.5-.6-4.2a72.4,72.4,0,0,1,4-15.8c.2-.4,1-2.5,2-5.3a24.8,24.8,0,0,0,.9-3.1c.2-1.3.7-4.6-1.1-6.9s-5.3-2.4-6.6-2.4c-3.8.1-6.8,2.1-9.2,3.8l-2.4,1.8a.5.5,0,0,0-.1-.5l-.6-.5c-.4-.5-1.9-.6-6.5,1.4-1.7,6.3-3.5,12.5-5.2,18.8-.5.8-.8,1.6-1.4,2.5-1.9,3.6-3.7,7.5-6.9,9.8a12.3,12.3,0,0,1-4.4,2c-2,.5-2.4-2-1.8-4.2,4.6-13.2,3.2-27-8.3-25.7s-18.9,14.6-21.8,27.1c-1,1.9-2.8,5.7-5.1,9.7a48.7,48.7,0,0,1-6.5,8.9c-2,2.1-4.3,3.5-5.8,2.7a2.5,2.5,0,0,1-1.1-1.3c-1.7-3.6,0-9.9.4-11.6l7-25.3-5.2.9c-2.4,7.7-4.7,15.3-7,23-.1.1-.1.3-.2.5a26.1,26.1,0,0,1-4.2,7.8s-6.2,10-9.9,11.1c-1.5.5-2.6.4-3.1-.9a8.9,8.9,0,0,1-.4-3.2c.4-6.1,2.3-12.1,3.9-18.1,1.2-4.1,2.6-9.2,4.2-14.5.7-2.3,1.3-4.6,2-7a3.1,3.1,0,0,1,2.7-2.6l4.8-.9,2.2-.5c.5-2.1.9-4.2,1.4-6.3l-2.5.6h-.1l-4.4.9c-1.4.4-1.3-.7-1-1.5s2.8-8.3,3.6-12.1c.1-.9.7-2.8-.2-3.7h0l-5.5,1.2c-2.7,8.9-4.4,14.7-4.6,16.1a2.9,2.9,0,0,1-.4,1.1c-.3.4-.9.7-2.2,1l-5.9,1.3h-.1l-.8.2c-.5,2-.9,4-1.3,6l2.2-.4h.1l3.8-.7c1.3-.2,2.2-.4,1.8,1.3l-1.8,6.5c-1.6,5.7-3.2,11-4.4,15.2-.4,1.3-.8,2.7-1.1,4.1s-2.6,5.1-4.4,8.2-5,9.1-8.5,12c-1.6,1.3-2.6,1.5-3.4,1.2s-1.3-2.8-1.4-3.7c-.2-6.1,8.2-28.9,10.5-35.1l-6.3,1.4-9.6,29.5c-1.6,4.5-6,11.4-9.2,12.2a2.7,2.7,0,0,1-2.2-.1c-1.2-.9-1-3.2-1-4.2.5-5.8,8.2-31.3,9.2-34.6l-6.5,1.5L359,62.8c-3.6,6.9-8.4,17.4-15.6,20.3-1.6.6-2.8.5-3.4-.9-2-3.9,1.7-16,3.3-21.2,5.5-17.9,10.4-33.6,12.8-44.6l.5-2.7-6.5,1.5q-6.7,23.4-13.4,47c-.4,1.1-.7,2.2-1.1,3.4a19.7,19.7,0,0,1-1.5,2.8c-1.8,3.6-3.7,7.4-6.9,9.8a14.6,14.6,0,0,1-4.4,2c-2,.4-2.4-2.1-1.7-4.2,4.5-13.3,3.2-27.1-8.4-25.8s-19.9,16.4-22.2,29.4c-1.9,3-4.5,5.9-7.5,6.6s-1.9-2.2-1.4-3.1a61.2,61.2,0,0,0,4.7-12,20.5,20.5,0,0,0,.4-7.3c-.7-3.8-3.3-5.4-6.5-5.2-6.2.6-9.5,5.8-10.5,11.6a23.1,23.1,0,0,0,0,8.3,16.6,16.6,0,0,0,1.8,5.3c1.9,2.5,5.7-1.8,4.1-4-2.6-3.8-1.4-16.5,3.9-16.3,1.2.1,2.3,1.1,2.3,3.3a25.2,25.2,0,0,1-.6,5.2c-1.7,7-6.6,15.7-11.5,22v7.1l2.1-2.3c1.2-1.6,2.4-3.1,3.4-4.6a5.6,5.6,0,0,1,4.6-2.9,15.7,15.7,0,0,0,10.1-4.4c.3,7.5,3.7,12.7,11.4,11.7,5-.8,9.6-4.6,13.3-9.6,1.7-1.9,2.9-3,5.2-3.2s5.7-1.3,8.9-3.5a22.8,22.8,0,0,0,4.2-4,23.7,23.7,0,0,0,.3,6c1.1,6.4,6.8,6.9,13,2.6A36,36,0,0,0,357,75.3a13.8,13.8,0,0,0,.8,5.3c1.3,3.6,4.6,4.6,8.9,3a16.6,16.6,0,0,0,5-3.1c1.9-1.6,4.2-3.9,5.5-2a5.2,5.2,0,0,0,1.8,1.6c1.8.8,3.9.3,6.4-1.2a24.7,24.7,0,0,0,4.4-3.7,46.8,46.8,0,0,0,6.4-9v.4a13.4,13.4,0,0,0,.7,5.6c1.4,3.4,4.7,4.5,9,3s9.1-7.1,12.5-12.6a13.1,13.1,0,0,0,.9,4.7c2.5,5.6,9.6,3.6,15.2-1.9a51.1,51.1,0,0,0,7.9-11.2c.6,6.8,4.1,11.5,11.3,10.4,5.1-.7,9.6-4.5,13.3-9.5,1.8-1.9,3-3,5.2-3.2s5.7-1.3,8.9-3.5a23.7,23.7,0,0,0,2.9-2.5l-2.3,8.3c-.7,3.7,5.4,3.8,6.5-.4l4.6-16.7c.5-1.8,3.8-15.1,10.3-20.5.8-.6,4.1-3.1,7.5-2.9a3,3,0,0,1,2.5,1,2.8,2.8,0,0,1,.3,2.6c-2.4,8.7-5.6,15.1-7,24.9s5,10.1,10.6,7l1.5-1c3.8-2.8,6-6.9,8.8-11.7s4.8-7.7,6.2-9.9,2.8-4.2,3.7-5.4ZM315.7,74c-.3.9-.4,1.7-2.4,2.1a3.8,3.8,0,0,0-1.9.4,4.7,4.7,0,0,0-2.5,4,6,6,0,0,0,1,3,2.3,2.3,0,0,1,.2,2.8c-2.3,3.2-5.1,5.6-8.1,6.3-12.8,2.7-2.4-35.5,10.6-36.5C317.9,55.7,318.3,64.8,315.7,74ZM468.1,40.1c-.3.9-.4,1.7-2.4,2a5.9,5.9,0,0,0-1.9.5,5.1,5.1,0,0,0-2.5,3.9,5.3,5.3,0,0,0,1.1,3.1,2.3,2.3,0,0,1,.1,2.8c-2.2,3.2-5,5.6-8.1,6.2C441.7,61.4,452,23.2,465,22.2,470.4,21.8,470.8,30.8,468.1,40.1Z" transform="translate(-269.3)"/><path class="cls-2" d="M286.1,128.3l-.4.3-.4.5a17.7,17.7,0,0,0-1.6,2.2l-2.4,3.4a23.5,23.5,0,0,1-1.9,2.5l-.9.7a.8.8,0,0,1-1.2-.5.9.9,0,0,1-.3-.7,7.8,7.8,0,0,1-.2-1.6V132a19.4,19.4,0,0,0-.2-2.4,1.9,1.9,0,0,0-.2-.8,1.5,1.5,0,0,0-1.3-1,1.3,1.3,0,0,0-1.1,1,3.1,3.1,0,0,0-.3,1.3c-.1,1.2-.1,2.4-.1,3.7v12c0,1.5.1,3,.1,4.5a3.2,3.2,0,0,0,.3,1.4c.5,1.3,1.7,1.3,2.3.2a2,2,0,0,0,.3-1.1,19.5,19.5,0,0,0,.2-2.5,7.6,7.6,0,0,1,.3-2.1c.4-1.4,2-2.6,3-1.3a2.2,2.2,0,0,1,.7.9l1.2,1.9,2,3.6,1,1a1.2,1.2,0,0,0,.9.4h.2c.6,0,.9-.5.8-1.2a3,3,0,0,0-.5-1.6c-.8-1.5-1.6-3-2.5-4.5s-1.1-2-1.6-3.1a4.1,4.1,0,0,1,.1-4,6,6,0,0,1,.6-1.1c.8-1.3,1.7-2.5,2.6-3.8l1.6-2.5a3.6,3.6,0,0,0,.4-.9,1.2,1.2,0,0,0-.1-1.4A1.1,1.1,0,0,0,286.1,128.3Z" transform="translate(-269.3)"/><path class="cls-2" d="M301.2,131.5l.9-.2h5.5l1.2-.6a1.8,1.8,0,0,0,.1-2.4l-.8-.5a5.1,5.1,0,0,0-1.7-.3h-7l-1.4.2a2.5,2.5,0,0,0-1.7,2.2,2.5,2.5,0,0,0-.1.8c.1,3.1-.2,6.1-.2,9.1s.1,6.1.2,9.1a10.9,10.9,0,0,0,.1,1.8,2.4,2.4,0,0,0,1.8,2.3,3.4,3.4,0,0,0,1.4.2h6.9l1.7-.2a3.1,3.1,0,0,0,.9-.7,2,2,0,0,0-.1-2.2,2.2,2.2,0,0,0-1.3-.6l-2.2-.2h-3.9a2.2,2.2,0,0,1-1.6-.9,3.8,3.8,0,0,1-.5-1.5,5.3,5.3,0,0,1,.1-2.8,2.5,2.5,0,0,1,2.1-1.6h1.6l2.4-.2a1.7,1.7,0,0,0,1.3-.8,1.9,1.9,0,0,0,0-1.8,1.8,1.8,0,0,0-1.2-.9l-1.6-.2h-2a2.3,2.3,0,0,1-1.4-.4,2.1,2.1,0,0,1-1.2-1.5,5.3,5.3,0,0,1-.1-2.8C299.7,132.4,300.2,131.7,301.2,131.5Z" transform="translate(-269.3)"/><path class="cls-2" d="M346.8,139.7a5.5,5.5,0,0,0-2.5-1.3l-2.5-.8a7.1,7.1,0,0,1-1.8-.8,2.4,2.4,0,0,1-1-1,2.9,2.9,0,0,1,0-3.5,2.7,2.7,0,0,1,2.2-1.4,3.8,3.8,0,0,1,3.1,1.3l1,1.2a1.8,1.8,0,0,0,1,.4,1.3,1.3,0,0,0,1.2-1.6,3.1,3.1,0,0,0-.6-1.9,6.4,6.4,0,0,0-3-2.7,5,5,0,0,0-2.7-.5c-2.4.1-4.3,1.5-5.5,4.2a7.9,7.9,0,0,0-.6,3.2,7,7,0,0,0,1.4,3.8,7.1,7.1,0,0,0,3.4,2.6l2.5.7a8.4,8.4,0,0,1,2,.8,4.5,4.5,0,0,1,1.5,1.3,4,4,0,0,1,0,4.2,3.9,3.9,0,0,1-2,1.6,6.5,6.5,0,0,1-2.4.1,4.3,4.3,0,0,1-2.6-1.6l-1.1-1.5a1.6,1.6,0,0,0-.7-.7c-1-.6-1.8.1-1.9,1.3a5.1,5.1,0,0,0,.2,1.3,7.7,7.7,0,0,0,1.9,3,6.8,6.8,0,0,0,5.2,2,3.8,3.8,0,0,0,1.5-.1,6.4,6.4,0,0,0,4.1-2.6,7.6,7.6,0,0,0,1.5-6.4A6.7,6.7,0,0,0,346.8,139.7Z" transform="translate(-269.3)"/><path class="cls-2" d="M372.6,127.8a.9.9,0,0,0-1.4-.1,3.4,3.4,0,0,0-.8,1.7c-.1,1-.2,1.9-.2,2.8v6.9a4,4,0,0,1-.9,2.1,1.9,1.9,0,0,1-1.3.6,17.7,17.7,0,0,1-4.6,0,2.8,2.8,0,0,1-2.1-2.5,14.1,14.1,0,0,1-.1-2V131a7.8,7.8,0,0,0-.3-2.2,2.1,2.1,0,0,0-.6-1c-.8-.8-1.8-.1-2.1,1a9.7,9.7,0,0,0-.2,2.4v18.5a6.8,6.8,0,0,0,.2,2,1.7,1.7,0,0,0,.6,1.2.9.9,0,0,0,1.5,0,1.9,1.9,0,0,0,.7-1.2,7.7,7.7,0,0,0,.2-1.5,8.8,8.8,0,0,1,.2-1.6,2.3,2.3,0,0,1,1.6-2.2,3.2,3.2,0,0,1,1.4-.3h2.7l1.1.2a2,2,0,0,1,1.2.8,3.9,3.9,0,0,1,.8,2.1,12.3,12.3,0,0,0,.2,1.9,3.1,3.1,0,0,0,.3,1.3,1.3,1.3,0,0,0,2.3.2,4.2,4.2,0,0,0,.4-1,17.9,17.9,0,0,0,.2-2.3V131.5a19.5,19.5,0,0,0-.2-2.3A2.2,2.2,0,0,0,372.6,127.8Z" transform="translate(-269.3)"/><path class="cls-2" d="M301.2,131.5l.9-.2h5.5l1.2-.6a1.8,1.8,0,0,0,.1-2.4l-.8-.5a5.1,5.1,0,0,0-1.7-.3h-7l-1.4.2a2.5,2.5,0,0,0-1.7,2.2,2.5,2.5,0,0,0-.1.8c.1,3.1-.2,6.1-.2,9.1s.1,6.1.2,9.1a10.9,10.9,0,0,0,.1,1.8,2.4,2.4,0,0,0,1.8,2.3,3.4,3.4,0,0,0,1.4.2h6.9l1.7-.2a3.1,3.1,0,0,0,.9-.7,2,2,0,0,0-.1-2.2,2.2,2.2,0,0,0-1.3-.6l-2.2-.2h-3.9a2.2,2.2,0,0,1-1.6-.9,3.8,3.8,0,0,1-.5-1.5,5.3,5.3,0,0,1,.1-2.8,2.5,2.5,0,0,1,2.1-1.6h1.6l2.4-.2a1.7,1.7,0,0,0,1.3-.8,1.9,1.9,0,0,0,0-1.8,1.8,1.8,0,0,0-1.2-.9l-1.6-.2h-2a2.3,2.3,0,0,1-1.4-.4,2.1,2.1,0,0,1-1.2-1.5,5.3,5.3,0,0,1-.1-2.8C299.7,132.4,300.2,131.7,301.2,131.5Z" transform="translate(-269.3)"/><path class="cls-2" d="M346.8,139.7a5.5,5.5,0,0,0-2.5-1.3l-2.5-.8a7.1,7.1,0,0,1-1.8-.8,2.4,2.4,0,0,1-1-1,2.9,2.9,0,0,1,0-3.5,2.7,2.7,0,0,1,2.2-1.4,3.8,3.8,0,0,1,3.1,1.3l1,1.2a1.8,1.8,0,0,0,1,.4,1.3,1.3,0,0,0,1.2-1.6,3.1,3.1,0,0,0-.6-1.9,6.4,6.4,0,0,0-3-2.7,5,5,0,0,0-2.7-.5c-2.4.1-4.3,1.5-5.5,4.2a7.9,7.9,0,0,0-.6,3.2,7,7,0,0,0,1.4,3.8,7.1,7.1,0,0,0,3.4,2.6l2.5.7a8.4,8.4,0,0,1,2,.8,4.5,4.5,0,0,1,1.5,1.3,4,4,0,0,1,0,4.2,3.9,3.9,0,0,1-2,1.6,6.5,6.5,0,0,1-2.4.1,4.3,4.3,0,0,1-2.6-1.6l-1.1-1.5a1.6,1.6,0,0,0-.7-.7c-1-.6-1.8.1-1.9,1.3a5.1,5.1,0,0,0,.2,1.3,7.7,7.7,0,0,0,1.9,3,6.8,6.8,0,0,0,5.2,2,3.8,3.8,0,0,0,1.5-.1,6.4,6.4,0,0,0,4.1-2.6,7.6,7.6,0,0,0,1.5-6.4A6.7,6.7,0,0,0,346.8,139.7Z" transform="translate(-269.3)"/><path class="cls-2" d="M286.1,128.3l-.4.3-.4.5a17.7,17.7,0,0,0-1.6,2.2l-2.4,3.4a23.5,23.5,0,0,1-1.9,2.5l-.9.7a.8.8,0,0,1-1.2-.5.9.9,0,0,1-.3-.7,7.8,7.8,0,0,1-.2-1.6V132a19.4,19.4,0,0,0-.2-2.4,1.9,1.9,0,0,0-.2-.8,1.5,1.5,0,0,0-1.3-1,1.3,1.3,0,0,0-1.1,1,3.1,3.1,0,0,0-.3,1.3c-.1,1.2-.1,2.4-.1,3.7v12c0,1.5.1,3,.1,4.5a3.2,3.2,0,0,0,.3,1.4c.5,1.3,1.7,1.3,2.3.2a2,2,0,0,0,.3-1.1,19.5,19.5,0,0,0,.2-2.5,7.6,7.6,0,0,1,.3-2.1c.4-1.4,2-2.6,3-1.3a2.2,2.2,0,0,1,.7.9l1.2,1.9,2,3.6,1,1a1.2,1.2,0,0,0,.9.4h.2c.6,0,.9-.5.8-1.2a3,3,0,0,0-.5-1.6c-.8-1.5-1.6-3-2.5-4.5s-1.1-2-1.6-3.1a4.1,4.1,0,0,1,.1-4,6,6,0,0,1,.6-1.1c.8-1.3,1.7-2.5,2.6-3.8l1.6-2.5a3.6,3.6,0,0,0,.4-.9,1.2,1.2,0,0,0-.1-1.4A1.1,1.1,0,0,0,286.1,128.3Z" transform="translate(-269.3)"/><path class="cls-2" d="M372.6,127.8a.9.9,0,0,0-1.4-.1,3.4,3.4,0,0,0-.8,1.7c-.1,1-.2,1.9-.2,2.8v6.9a4,4,0,0,1-.9,2.1,1.9,1.9,0,0,1-1.3.6,17.7,17.7,0,0,1-4.6,0,2.8,2.8,0,0,1-2.1-2.5,14.1,14.1,0,0,1-.1-2V131a7.8,7.8,0,0,0-.3-2.2,2.1,2.1,0,0,0-.6-1c-.8-.8-1.8-.1-2.1,1a9.7,9.7,0,0,0-.2,2.4v18.5a6.8,6.8,0,0,0,.2,2,1.7,1.7,0,0,0,.6,1.2.9.9,0,0,0,1.5,0,1.9,1.9,0,0,0,.7-1.2,7.7,7.7,0,0,0,.2-1.5,8.8,8.8,0,0,1,.2-1.6,2.3,2.3,0,0,1,1.6-2.2,3.2,3.2,0,0,1,1.4-.3h2.7l1.1.2a2,2,0,0,1,1.2.8,3.9,3.9,0,0,1,.8,2.1,12.3,12.3,0,0,0,.2,1.9,3.1,3.1,0,0,0,.3,1.3,1.3,1.3,0,0,0,2.3.2,4.2,4.2,0,0,0,.4-1,17.9,17.9,0,0,0,.2-2.3V131.5a19.5,19.5,0,0,0-.2-2.3A2.2,2.2,0,0,0,372.6,127.8Z" transform="translate(-269.3)"/><path class="cls-2" d="M397.4,133.1a9,9,0,0,0-3.9-5.1,5.8,5.8,0,0,0-4.4-.7,7.1,7.1,0,0,0-4.9,3.8,12.6,12.6,0,0,0-1.6,5.4,43.5,43.5,0,0,0-.2,5.1,22.2,22.2,0,0,0,.3,3.7,11.8,11.8,0,0,0,2.4,5.7,6.4,6.4,0,0,0,6.2,2.5c3.2-.5,5.7-3.6,6.4-7.1a30.4,30.4,0,0,0,.5-6,14.1,14.1,0,0,0-.1-2.9A21.3,21.3,0,0,0,397.4,133.1ZM395,144.5a7.3,7.3,0,0,1-1.7,3.8c-1.4,1.5-3,1.9-4.7,1a4.8,4.8,0,0,1-2.4-2.8,12.8,12.8,0,0,1-.7-3.4,18.2,18.2,0,0,1-.1-3.3,14.1,14.1,0,0,1,.7-5,5.3,5.3,0,0,1,2.8-3.6c1.9-.8,3.9.2,5,2a9.9,9.9,0,0,1,.9,2.4,15.4,15.4,0,0,1,.4,3v1.8A28.2,28.2,0,0,1,395,144.5Z" transform="translate(-269.3)"/><path class="cls-2" d="M421.2,135.4a9.6,9.6,0,0,0-1-3.4,6.9,6.9,0,0,0-5-4.3,17.6,17.6,0,0,0-3.3-.3,7.3,7.3,0,0,0-3.3.4c-1,.2-1.5,1-1.7,2.2a20.9,20.9,0,0,0-.1,2.5v15.9c0,.9.1,1.9.1,2.8a3.4,3.4,0,0,0,.6,1.5,1.1,1.1,0,0,0,1.8,0,3,3,0,0,0,.5-1.6l.2-1.9c.2-1.7,1.1-2.8,2.5-2.9l2.1-.2a6.5,6.5,0,0,0,5.3-3.8,9.3,9.3,0,0,0,.5-1A9.8,9.8,0,0,0,421.2,135.4Zm-3.6,3.7a4,4,0,0,1-2.1,2.6,5.4,5.4,0,0,1-3.3.4,2.8,2.8,0,0,1-2.1-2.9c-.1-.8-.1-1.6-.2-2.4a22.8,22.8,0,0,1,.2-2.7c.2-1.1.7-2.1,1.6-2.3a5,5,0,0,1,3.8.2,4.8,4.8,0,0,1,2.4,3.6A8.2,8.2,0,0,1,417.6,139.1Z" transform="translate(-269.3)"/></svg>