<svg id="Layer_1" data-name="Layer 1" xmlns="http://www.w3.org/2000/svg" viewBox="0 0 269.7 151.5"><defs><style>.cls-1{fill:#33aeae;}.cls-2{fill:#fff;}</style></defs><title>revolution-left</title><path class="cls-1" d="M267.3,96.8c-2.7,3-5.9,5.7-8.5,5.7s-2.2-7.2-2-10.7c.4-6.4,2-16.4,8.6-28.5L259,64.7l-6.9,20.6c0,.1-.1.1-.1.2-4.4,8.1-11.7,20.9-21.8,23.8-3.3,1-6.4.6-8-2.1a7.6,7.6,0,0,1-1.2-4.1c0-1.8,2.3-3.9,3.2-4.2,9.6-3.8,18.9-10.3,21.9-20.5,2.3-7.2-1.4-12-9.1-10.2S220.2,81.4,216.8,92c-2.6,7.9-2.8,15.5.2,19.6s8.3,4.4,13.5,2.7c8-2.5,14.4-9.5,19.2-16.9-.5,5.9.3,12,7.9,10.9,4.4-.6,8.5-3.5,12.1-7.2V94A34.8,34.8,0,0,1,267.3,96.8Zm-43.5-7.2c3.1-7.3,8-14.1,13.6-16,3.8-1.2,4.6,1.6,3.7,4.8-2,7-8.5,11.4-14.9,14.3C223.3,93.8,223,91.8,223.8,89.6Z" transform="translate(0 -1.6)"/><path d="M101.5,128.8" transform="translate(0 -1.6)"/><path class="cls-1" d="M2.6,11.3A65.2,65.2,0,0,1,.1,2.7C-.4.5,2.2,2.2,4,3.4s4.9,2.2,15.3,7.7S51.7,21,56.6,20.6s6,.2,7.2,2.2-2.9,3.9-5.5,4.1c-16.1,1.4-33.2-6.4-36.6-7.7s-.4,2.5,6.5,6.8S50,35.3,57.3,37.6s9,2.4,12.7,4.1,2.9,3.5.1,2.9-3.9-.8-10-1.7-20.6-5.8-26.3-8.5S13.5,20.8,10.3,18.1,3.5,14.2,2.6,11.3ZM19.1,41.2c-1.1-2-1.3-6.5-1.4-7.6s1.9-.7,3.8.5,6.8,2.4,9,3.5-.9,1.8-2.5,1.6c-3.5-.4-5.3.1-2,2.6s16.7,7.5,24.9,8.6,20.7.2,24,.3,2.3,1.2.7,2-5.5,1.7-16.9,2.8S38,54.2,32,51,20.2,43.3,19.1,41.2ZM32.8,63.9A8.3,8.3,0,0,1,31,62c-.3-.5-2.4-3.4-1.7-4.4s2,0,6.3.6,6.8,1.4,10.2,1.7,2,.8,1.5,1.6-3.2.1-5.3.2a1.3,1.3,0,0,0-.8.3c-.2.4.3,1,.5,1.3,3,4,9.9,4.6,9.9,4.6C64.3,69,81.1,59.1,86,55.1c.5-.5,2-1.8,3.1-1.4s2,3.3.9,4.7l-.8.5c-1.4,1-3.3,2.4-5.8,3.9a66.4,66.4,0,0,1-13.7,6.9c-1.6.6-13.3,4.4-24.1,1.5a25.2,25.2,0,0,1-8.1-3.5A22.5,22.5,0,0,1,32.8,63.9ZM43.7,87.7a8.7,8.7,0,0,1-1.1-7.4,7.7,7.7,0,0,1,5.8-5.5c.4-.1,2.7-.4,3.7.9a1.9,1.9,0,0,1,.3,1.8c-.5,1.1-2.1.6-3.3,1.8a2.9,2.9,0,0,0-1,2.5c.3,2.1,3.7,3.2,5.7,3.8a16.8,16.8,0,0,0,3.6.8,27.5,27.5,0,0,0,11.5-1.8c3.9-1.7,7.3-4.4,14.3-10,.9-.7,3.3-2.7,4-2.1s.2.9-.2,2.8-.5,3.2-.6,4.1-1.8,2.2-3.8,4A53.4,53.4,0,0,1,76.8,88C70.5,92.2,49.6,96.4,43.7,87.7Zm20.2,25.2c-2.7-.1-9.2-.5-12.2-4.8a7.9,7.9,0,0,1-1.4-3.9,8.5,8.5,0,0,1,2.4-6.3c3.2-3.5,8.8-4.3,9.8-2.8a1.5,1.5,0,0,1,.1,1.3c-.4,1.2-1.9,1.3-3.5,2.1s-3.8,2.4-3.9,4.3,2.9,4.2,3.2,4.3c3.4,2,7.4,1,13.3-.5,3.6-1,5.4-1.4,7.2-2.3S89,97.6,92.1,91.9c.3-.5,1-1.9,2.3-2.2a3.5,3.5,0,0,1,3.5,2.1,2.8,2.8,0,0,1-.2,2.1c-2.7,6.7-9.9,11.6-9.9,11.6C83.5,108.4,74.6,113.6,63.9,112.9Zm13,11.5c-5.2-.4-13.4-4.3-5.9-4.7,2.4.1,16-1.9,23-6.8a66.1,66.1,0,0,0,10.6-8.4c2.2-1.9,2.7-1.5,3.5.5s2.8,2.7-1,6-7.7,9-14.8,11.1S82.1,124.8,76.9,124.4ZM131,113.9a15.7,15.7,0,0,0,2.3,4.5,48.2,48.2,0,0,0,5.6,5.9,9.8,9.8,0,0,1,2.2,3.2c.2.4.9,2,.4,2.5s-.7.2-1.9-.4c-3-1.4-9.8-5.6-12.3-12.1s-2-14.4-.7-19.4c2-3.4,4.1-4,3.5-2.2S129.3,109.4,131,113.9Zm-4.8-48.1c-4.8,7.8-6.4,9-8.2,13.9s-1.6,10.2-1.5,12.8a15.2,15.2,0,0,0,.2,2.8,25.3,25.3,0,0,0,4,10.3c1.8,6.3-3.3,4.5-5.7,1.9s-6-4.3-6.6-18.5,10.8-21.8,15.4-25.4S127.8,63.2,126.2,65.8ZM97.7,140.2a8.4,8.4,0,0,1-3.2.7,9.8,9.8,0,0,1-3.7.2c-.4,0-4.7-.6-6.4-4.2-.7-1.6-1.3-4.2.1-6s2-1.7,6.3-2.3l2.8-.2.2.2a.2.2,0,0,1-.1.3,22.6,22.6,0,0,1-2.9,2.6,2.2,2.2,0,0,0-2.2,1.2c-.4.9.6,1.9.7,2.1,2.1,2.3,7.8.1,8.5-.2L118.5,122l.4-.3c.1,0,1.3-.6,2.1,0a2.6,2.6,0,0,1,.5,3.6,9.4,9.4,0,0,1-1,1h0l-21.1,13A12.2,12.2,0,0,1,97.7,140.2Zm118.4-.9a18.4,18.4,0,0,1-7.2,2.4,7.8,7.8,0,0,1-2.2,0,16,16,0,0,1-6.1-1.4c-4.3-2-6.1-7-6.5-8.1-1.8-5,.2-6.4,0-17.2-.1-7.6-1.1-10.4-2.5-12.7a14.5,14.5,0,0,0-5-5.1c-6.2-3.4-17.9-2.5-20.3,4.9-1.2,3.6-1.6,6.1-3,9.8-2.7,13.1-9.9,23.4-19.3,28.6h-.2a41.7,41.7,0,0,1-14.5,5.6,26.3,26.3,0,0,1-13.5-1.1,17.6,17.6,0,0,1-3-1.7c-1.7-1.2-2.6-1.8-2.9-2.8s-.3-2.9.7-3.6,4,1.6,8.2,2.7,6,.4,9.4-.3c10.8-2.1,17.8-9.7,19.5-11.6,4.4-5,6.6-10.1,8.5-15.5s2.7-8.3,3.6-11.7c4.4-15.7,4.3-19.2,7.4-30.8,0,0,3-10.4,7.1-17l2.1-3.2h.1l9.7-2.1h0a4.5,4.5,0,0,1-.8,1.4c-2.1,2.7-3.8,5.7-6,8.3-.7.9-2.1,4.4-4.8,11.4a40.9,40.9,0,0,0-3,11.4c-.7,4.8,1.3,7.8,5.8,6.8a41.4,41.4,0,0,0,7.7-2.7c13.1-5.8,20.4-19.2,20.4-30.5s-8.8-23.1-25.7-19.7C169,36,159.5,42.7,153,51.6s-9.9,19.6-8.1,29.7a12.3,12.3,0,0,0,.8,3.3c2.5,4.2,6.5,7.1,6.1,8.6s-2.8,4.5-2.8,7.9-11.2-6.2-13.5-16.4c-.7-3-4.1-10.6-1.5-18.7,1.8-5.9,8.7-19.6,9.3-23.2a1.8,1.8,0,0,0,.1-.6c.1-2.6-2.1-4.6-2.8-5.4-5.8-5.5-15.8-6.3-15.8-6.3-21.5-1.6-41.6-2.2-47.1-2.4s-7.5,1.1-7.8,2.1C68.7,34.1,87,42.3,88,42.7A34.7,34.7,0,0,0,94.6,45a34.3,34.3,0,0,0,7.6,1,32.1,32.1,0,0,0,13.7-2.9c.2,0,4.1-1.5,6.1,0a3.2,3.2,0,0,1,1.4,2,2.4,2.4,0,0,1-.1,1.1c-.7,2.1-6.6,4.3-10,5.9a54.4,54.4,0,0,0-5.7,2.8c-4.7,2.7-7.2,4.1-8.7,6.3-4.7,6.9,1.2,19.8,2.7,23.1s3.4,6.5,2.8,6.9-.4.1-1.7-1.1c-10.2-10-11-18.3-11-18.3-.5-6.3,1.3-15,7.2-18.7l.7-.5,4.4-2.2-5.4-.3a54.4,54.4,0,0,1-7.5-1.6c-4-1.1-14.7-4.3-23.4-12.3-1.8-1.8-5.1-5.1-4.3-7.5A5.6,5.6,0,0,1,64.5,27a9.7,9.7,0,0,1,3.8-2.4A27.7,27.7,0,0,1,77.8,23l40.3.6c12.4.6,21.8,4,25.7,7.3.3.3,4.6,3.9,5.5,7.5,0,.2.3,1.5.6,2.9s.6,2.8.8,3.6a55.5,55.5,0,0,1,28.7-17.5c21.3-5,33.1,8.2,32.7,24.6a43.4,43.4,0,0,1-16.7,32.9c-.8.5-3.6,2.8-3.2,5.1,0,.3.2,1.1,2.5,3.7l3.1,3.1c5,4.3,3.8,20.7,3.7,21.8-.6,6.8-1.8,9.9.4,13a9.5,9.5,0,0,0,4.9,3.6,9,9,0,0,0,5.4-.3,12.6,12.6,0,0,0,3.9-2.1c1.3-1,2.8-1.3,3.8-.7a2.6,2.6,0,0,1,1.2,1.2C221.6,134.9,219.5,137.3,216.1,139.3Z" transform="translate(0 -1.6)"/><path class="cls-1" d="M219.9,132.1c-1-.6-2.5-.3-3.8.7a12.6,12.6,0,0,1-3.9,2.1,9,9,0,0,1-5.4.3,9.5,9.5,0,0,1-4.9-3.6c-2.2-3.1-1-6.2-.4-13,.1-1.1,1.3-17.5-3.7-21.8l-3.1-3.1c-2.3-2.6-2.5-3.4-2.5-3.7-.4-2.3,2.4-4.6,3.2-5.1A43.4,43.4,0,0,0,212.1,52c.4-16.4-11.4-29.6-32.7-24.6a55.5,55.5,0,0,0-28.7,17.5c-.2-.8-.4-2.1-.8-3.6s-.6-2.7-.6-2.9c-.9-3.6-5.2-7.2-5.5-7.5-3.9-3.3-13.3-6.7-25.7-7.3L77.8,23a27.7,27.7,0,0,0-9.5,1.6A9.7,9.7,0,0,0,64.5,27a5.6,5.6,0,0,0-1.1,1.7c-.8,2.4,2.5,5.7,4.3,7.5,8.7,8,19.4,11.2,23.4,12.3a54.4,54.4,0,0,0,7.5,1.6l5.4.3-4.4,2.2-.7.5c-5.9,3.7-7.7,12.4-7.2,18.7,0,0,.8,8.3,11,18.3,1.3,1.2,1.6,1.2,1.7,1.1s-1.6-4.2-2.8-6.9-7.4-16.2-2.7-23.1c1.5-2.2,4-3.6,8.7-6.3a54.4,54.4,0,0,1,5.7-2.8c3.4-1.6,9.3-3.8,10-5.9a2.4,2.4,0,0,0,.1-1.1,3.2,3.2,0,0,0-1.4-2c-2-1.5-5.9,0-6.1,0A32.1,32.1,0,0,1,102.2,46a34.3,34.3,0,0,1-7.6-1A34.7,34.7,0,0,1,88,42.7c-1-.4-19.3-8.6-18.1-12.5.3-1,1.9-2,7.8-2.1s25.6.8,47.1,2.4c0,0,10,.8,15.8,6.3.7.8,2.9,2.8,2.8,5.4a1.8,1.8,0,0,1-.1.6c-.6,3.6-7.5,17.3-9.3,23.2-2.6,8.1.8,15.7,1.5,18.7,2.3,10.2,13.4,19.1,13.5,16.4s2.4-6.2,2.8-7.9-3.6-4.4-6.1-8.6a12.3,12.3,0,0,1-.8-3.3c-1.8-10.1,1.6-20.9,8.1-29.7S169,36,179.8,33.9c16.9-3.4,25.8,7,25.7,19.7s-7.3,24.7-20.4,30.5a41.4,41.4,0,0,1-7.7,2.7c-4.5,1-6.5-2-5.8-6.8a40.9,40.9,0,0,1,3-11.4c2.7-7,4.1-10.5,4.8-11.4,2.2-2.6,3.9-5.6,6-8.3a4.5,4.5,0,0,0,.8-1.4h0l-9.7,2.1h-.1l-2.1,3.2c-4.1,6.6-7.1,17-7.1,17-3.1,11.6-3,15.1-7.4,30.8-.9,3.4-2.1,7.2-3.6,11.7s-4.1,10.5-8.5,15.5c-1.7,1.9-8.7,9.5-19.5,11.6-3.4.7-6.1,1.2-9.4.3s-6.6-3.8-8.2-2.7-1.1,2.4-.7,3.6,1.2,1.6,2.9,2.8a17.6,17.6,0,0,0,3,1.7,26.3,26.3,0,0,0,13.5,1.1,41.7,41.7,0,0,0,14.5-5.6h.2c9.4-5.2,16.6-15.5,19.3-28.6,1.4-3.7,1.8-6.2,3-9.8,2.4-7.4,14.1-8.3,20.3-4.9a14.5,14.5,0,0,1,5,5.1c1.4,2.3,2.4,5.1,2.5,12.7.2,10.8-1.8,12.2,0,17.2.4,1.1,2.2,6.1,6.5,8.1a16,16,0,0,0,6.1,1.4,7.8,7.8,0,0,0,2.2,0,18.4,18.4,0,0,0,7.2-2.4c3.4-2,5.5-4.4,5-6A2.6,2.6,0,0,0,219.9,132.1Z" transform="translate(0 -1.6)"/><path class="cls-1" d="M123.8,63.6c-4.6,3.6-16,11.2-15.4,25.4s4.2,16,6.6,18.5,7.5,4.4,5.7-1.9a25.3,25.3,0,0,1-4-10.3,15.2,15.2,0,0,1-.2-2.8c-.1-2.6-.3-7.9,1.5-12.8s3.4-6.1,8.2-13.9C127.8,63.2,128.4,60,123.8,63.6Z" transform="translate(0 -1.6)"/><path class="cls-1" d="M126.6,98.1c-1.3,5-1.8,12.9.7,19.4s9.3,10.7,12.3,12.1c1.2.6,1.7.6,1.9.4s-.2-2.1-.4-2.5a9.8,9.8,0,0,0-2.2-3.2,48.2,48.2,0,0,1-5.6-5.9,15.7,15.7,0,0,1-2.3-4.5c-1.7-4.5-1.5-16.2-.9-18S128.6,94.7,126.6,98.1Z" transform="translate(0 -1.6)"/><path class="cls-1" d="M60.1,42.9c6.1.9,7.3,1.1,10,1.7s3.6-1.2-.1-2.9-5.5-1.8-12.7-4.1S35.2,30.4,28.2,26s-9.9-8.1-6.5-6.8,20.5,9.1,36.6,7.7c2.6-.2,6.6-2.1,5.5-4.1s-2.2-2.7-7.2-2.2-26.9-4-37.3-9.5S5.9,4.7,4,3.4-.4.5.1,2.7a65.2,65.2,0,0,0,2.5,8.6c.9,2.9,4.5,4.1,7.7,6.8S28.1,31.7,33.8,34.4,53.9,42,60.1,42.9Z" transform="translate(0 -1.6)"/><path class="cls-1" d="M58.7,55.5c11.4-1.1,15.3-2.1,16.9-2.8s2.6-1.9-.7-2-15.8.7-24-.3-21.6-6-24.9-8.6-1.5-3,2-2.6c1.6.2,4.7-.5,2.5-1.6s-7.2-2.2-9-3.5-3.9-1.7-3.8-.5.3,5.6,1.4,7.6,7,6.6,12.9,9.8S47.4,56.6,58.7,55.5Z" transform="translate(0 -1.6)"/><path class="cls-1" d="M69.7,69.7a66.4,66.4,0,0,0,13.7-6.9c2.5-1.5,4.4-2.9,5.8-3.9l.8-.5c1.1-1.4.4-4.1-.9-4.7s-2.6.9-3.1,1.4c-4.9,4-21.7,13.9-34.4,12.8,0,0-6.9-.6-9.9-4.6-.2-.3-.7-.9-.5-1.3a1.3,1.3,0,0,1,.8-.3c2.1-.1,4.8.6,5.3-.2s.6-1.4-1.5-1.6S39,58.8,35.6,58.2s-5.8-1.4-6.3-.6S30.7,61.5,31,62a8.3,8.3,0,0,0,1.8,1.9,22.5,22.5,0,0,0,4.7,3.8,25.2,25.2,0,0,0,8.1,3.5C56.4,74.1,68.1,70.3,69.7,69.7Z" transform="translate(0 -1.6)"/><path class="cls-1" d="M76.8,88a53.4,53.4,0,0,0,5.8-4.6c2-1.8,3.7-3.5,3.8-4s.3-2.3.6-4.1.6-2.6.2-2.8-3.1,1.4-4,2.1c-7,5.6-10.4,8.3-14.3,10a27.5,27.5,0,0,1-11.5,1.8,16.8,16.8,0,0,1-3.6-.8c-2-.6-5.4-1.7-5.7-3.8a2.9,2.9,0,0,1,1-2.5c1.2-1.2,2.8-.7,3.3-1.8a1.9,1.9,0,0,0-.3-1.8c-1-1.3-3.3-1-3.7-.9a7.7,7.7,0,0,0-5.8,5.5,8.7,8.7,0,0,0,1.1,7.4C49.6,96.4,70.5,92.2,76.8,88Z" transform="translate(0 -1.6)"/><path class="cls-1" d="M97.7,93.9a2.8,2.8,0,0,0,.2-2.1,3.5,3.5,0,0,0-3.5-2.1c-1.3.3-2,1.7-2.3,2.2-3.1,5.7-9.9,10.6-13.2,12.4s-3.6,1.3-7.2,2.3c-5.9,1.5-9.9,2.5-13.3.5-.3-.1-3.4-2-3.2-4.3s2.4-3.6,3.9-4.3,3.1-.9,3.5-2.1a1.5,1.5,0,0,0-.1-1.3c-1-1.5-6.6-.7-9.8,2.8a8.5,8.5,0,0,0-2.4,6.3,7.9,7.9,0,0,0,1.4,3.9c3,4.3,9.5,4.7,12.2,4.8,10.7.7,19.6-4.5,23.9-7.4C87.8,105.5,95,100.6,97.7,93.9Z" transform="translate(0 -1.6)"/><path class="cls-1" d="M107.1,111c3.8-3.3,1.7-3.9,1-6s-1.3-2.4-3.5-.5A66.1,66.1,0,0,1,94,112.9c-7,4.9-20.6,6.9-23,6.8-7.5.4.7,4.3,5.9,4.7s8.2-.2,15.4-2.3S103.3,114.3,107.1,111Z" transform="translate(0 -1.6)"/><path class="cls-1" d="M120.5,126.3a9.4,9.4,0,0,0,1-1,2.6,2.6,0,0,0-.5-3.6c-.8-.6-2,0-2.1,0l-.4.3L97.8,134.6c-.7.3-6.4,2.5-8.5.2-.1-.2-1.1-1.2-.7-2.1a2.2,2.2,0,0,1,2.2-1.2,22.6,22.6,0,0,0,2.9-2.6.2.2,0,0,0,.1-.3l-.2-.2-2.8.2c-4.3.6-5.2.7-6.3,2.3s-.8,4.4-.1,6c1.7,3.6,6,4.2,6.4,4.2a9.8,9.8,0,0,0,3.7-.2,8.4,8.4,0,0,0,3.2-.7,12.2,12.2,0,0,0,1.7-.9l21.1-13Z" transform="translate(0 -1.6)"/><path class="cls-2" d="M252,144.2a5.9,5.9,0,0,0-.7-2l-.9-1.9a3.6,3.6,0,0,1-.5-2.3v-2.3a12.1,12.1,0,0,0,0-1.9c-.2-2.8-2-5.6-4.4-6.1a10.8,10.8,0,0,0-1.9-.3h-3.3l-1.4.2a2.6,2.6,0,0,0-1.6,2.2,15,15,0,0,0-.2,2.2v16.5a11.5,11.5,0,0,0,.3,2.6,1.9,1.9,0,0,0,1.4,1.7l1.5.3a45.6,45.6,0,0,0,6.4-.2c1.9-.2,3.3-1.4,4.3-3.4a8.4,8.4,0,0,0,.9-2.8A5.3,5.3,0,0,0,252,144.2ZM240.3,134c.1-1.4,1-2.7,2.3-2.7H244a3,3,0,0,1,1.9,1,3.5,3.5,0,0,1,.7,3.3,3,3,0,0,1-1.7,2.2,3.6,3.6,0,0,1-2.7.2,2.9,2.9,0,0,1-1.9-2.5Zm6.6,14.7a3,3,0,0,1-1.8.4h-3a3.1,3.1,0,0,1-1.8-2.7v-1.5a2.7,2.7,0,0,1,1.6-2.4l.9-.2h2.9a3.2,3.2,0,0,1,2.2,1.3C249.1,145.1,248.8,147.9,246.9,148.7Z" transform="translate(0 -1.6)"/><path class="cls-2" d="M261.4,128.2a4,4,0,0,0-.7,1.9c0,1.1-.1,2.3-.1,3.5v13.6c0,1.1.1,2.3.1,3.5a3,3,0,0,0,.8,1.9,1.1,1.1,0,0,0,1.7-.1,5.8,5.8,0,0,0,.5-1.4,14.9,14.9,0,0,0,.2-2.1c-.1-2.9,0-5.7,0-8.6s-.1-5.9,0-8.8c0-1.3-.1-2.7-1-3.5A1,1,0,0,0,261.4,128.2Z" transform="translate(0 -1.6)"/></svg>