<svg id="Layer_1" data-name="Layer 1" xmlns="http://www.w3.org/2000/svg" viewBox="0 0 184.2 26.5"><defs><style>.cls-1{fill:#fff;}</style></defs><title>revolution-center</title><path class="cls-1" d="M251,149.5a8.4,8.4,0,0,0,.9-2.8,5.3,5.3,0,0,0,.1-2.5,5.9,5.9,0,0,0-.7-2l-.9-1.9a3.6,3.6,0,0,1-.5-2.3v-2.3a12.1,12.1,0,0,0,0-1.9c-.2-2.8-2-5.6-4.4-6.1a10.8,10.8,0,0,0-1.9-.3h-3.3l-1.4.2a2.6,2.6,0,0,0-1.6,2.2,15,15,0,0,0-.2,2.2v16.5a11.5,11.5,0,0,0,.3,2.6,1.9,1.9,0,0,0,1.4,1.7l1.5.3a45.6,45.6,0,0,0,6.4-.2C248.6,152.7,250,151.5,251,149.5ZM240.3,134c.1-1.4,1-2.7,2.3-2.7H244a3,3,0,0,1,1.9,1,3.5,3.5,0,0,1,.7,3.3,3,3,0,0,1-1.7,2.2,3.6,3.6,0,0,1-2.7.2,2.9,2.9,0,0,1-1.9-2.5Zm6.6,14.7a3,3,0,0,1-1.8.4h-3a3.1,3.1,0,0,1-1.8-2.7v-1.5a2.7,2.7,0,0,1,1.6-2.4l.9-.2h2.9a3.2,3.2,0,0,1,2.2,1.3C249.1,145.1,248.8,147.9,246.9,148.7Z" transform="translate(-237.1 -127.1)"/><path class="cls-1" d="M261.4,128.2a4,4,0,0,0-.7,1.9c0,1.1-.1,2.3-.1,3.5v13.6c0,1.1.1,2.3.1,3.5a3,3,0,0,0,.8,1.9,1.1,1.1,0,0,0,1.7-.1,5.8,5.8,0,0,0,.5-1.4,14.9,14.9,0,0,0,.2-2.1c-.1-2.9,0-5.7,0-8.6s-.1-5.9,0-8.8c0-1.3-.1-2.7-1-3.5A1,1,0,0,0,261.4,128.2Z" transform="translate(-237.1 -127.1)"/><path class="cls-1" d="M273.7,150.3a3.2,3.2,0,0,0,.3,1.4c.5,1.3,1.7,1.3,2.3.2a2,2,0,0,0,.3-1.1,19.5,19.5,0,0,0,.2-2.5,7.6,7.6,0,0,1,.3-2.1c.4-1.4,2-2.6,3-1.3a2.2,2.2,0,0,1,.7.9l1.2,1.9,2,3.6,1,1a1.2,1.2,0,0,0,.9.4h.2c.6,0,.9-.5.8-1.2a3,3,0,0,0-.5-1.6c-.8-1.5-1.6-3-2.5-4.5s-1.1-2-1.6-3.1a4.1,4.1,0,0,1,.1-4,6,6,0,0,1,.6-1.1c.8-1.3,1.7-2.5,2.6-3.8l1.6-2.5a3.6,3.6,0,0,0,.4-.9,1.2,1.2,0,0,0-.1-1.4,1.1,1.1,0,0,0-1.4-.2l-.4.3-.4.5a17.7,17.7,0,0,0-1.6,2.2l-2.4,3.4a23.5,23.5,0,0,1-1.9,2.5l-.9.7a.8.8,0,0,1-1.2-.5.9.9,0,0,1-.3-.7,7.8,7.8,0,0,1-.2-1.6V132a19.4,19.4,0,0,0-.2-2.4,1.9,1.9,0,0,0-.2-.8,1.5,1.5,0,0,0-1.3-1,1.3,1.3,0,0,0-1.1,1,3.1,3.1,0,0,0-.3,1.3c-.1,1.2-.1,2.4-.1,3.7v12C273.6,147.3,273.7,148.8,273.7,150.3Z" transform="translate(-237.1 -127.1)"/><path class="cls-1" d="M301.2,131.5l.9-.2h5.5l1.2-.6a1.8,1.8,0,0,0,.1-2.4l-.8-.5a5.1,5.1,0,0,0-1.7-.3h-7l-1.4.2a2.5,2.5,0,0,0-1.7,2.2,2.5,2.5,0,0,0-.1.8c.1,3.1-.2,6.1-.2,9.1s.1,6.1.2,9.1a10.9,10.9,0,0,0,.1,1.8,2.4,2.4,0,0,0,1.8,2.3,3.4,3.4,0,0,0,1.4.2h6.9l1.7-.2a3.1,3.1,0,0,0,.9-.7,2,2,0,0,0-.1-2.2,2.2,2.2,0,0,0-1.3-.6l-2.2-.2h-3.9a2.2,2.2,0,0,1-1.6-.9,3.8,3.8,0,0,1-.5-1.5,5.3,5.3,0,0,1,.1-2.8,2.5,2.5,0,0,1,2.1-1.6h1.6l2.4-.2a1.7,1.7,0,0,0,1.3-.8,1.9,1.9,0,0,0,0-1.8,1.8,1.8,0,0,0-1.2-.9l-1.6-.2h-2a2.3,2.3,0,0,1-1.4-.4,2.1,2.1,0,0,1-1.2-1.5,5.3,5.3,0,0,1-.1-2.8C299.7,132.4,300.2,131.7,301.2,131.5Z" transform="translate(-237.1 -127.1)"/><path class="cls-1" d="M343.9,149.5a6.5,6.5,0,0,1-2.4.1,4.3,4.3,0,0,1-2.6-1.6l-1.1-1.5a1.6,1.6,0,0,0-.7-.7c-1-.6-1.8.1-1.9,1.3a5.1,5.1,0,0,0,.2,1.3,7.7,7.7,0,0,0,1.9,3,6.8,6.8,0,0,0,5.2,2,3.8,3.8,0,0,0,1.5-.1,6.4,6.4,0,0,0,4.1-2.6,7.6,7.6,0,0,0,1.5-6.4,6.7,6.7,0,0,0-2.8-4.6,5.5,5.5,0,0,0-2.5-1.3l-2.5-.8a7.1,7.1,0,0,1-1.8-.8,2.4,2.4,0,0,1-1-1,2.9,2.9,0,0,1,0-3.5,2.7,2.7,0,0,1,2.2-1.4,3.8,3.8,0,0,1,3.1,1.3l1,1.2a1.8,1.8,0,0,0,1,.4,1.3,1.3,0,0,0,1.2-1.6,3.1,3.1,0,0,0-.6-1.9,6.4,6.4,0,0,0-3-2.7,5,5,0,0,0-2.7-.5c-2.4.1-4.3,1.5-5.5,4.2a7.9,7.9,0,0,0-.6,3.2,7,7,0,0,0,1.4,3.8,7.1,7.1,0,0,0,3.4,2.6l2.5.7a8.4,8.4,0,0,1,2,.8,4.5,4.5,0,0,1,1.5,1.3,4,4,0,0,1,0,4.2A3.9,3.9,0,0,1,343.9,149.5Z" transform="translate(-237.1 -127.1)"/><path class="cls-1" d="M368.2,146.3a2,2,0,0,1,1.2.8,3.9,3.9,0,0,1,.8,2.1,12.3,12.3,0,0,0,.2,1.9,3.1,3.1,0,0,0,.3,1.3,1.3,1.3,0,0,0,2.3.2,4.2,4.2,0,0,0,.4-1,17.9,17.9,0,0,0,.2-2.3V131.5a19.5,19.5,0,0,0-.2-2.3,2.2,2.2,0,0,0-.8-1.4.9.9,0,0,0-1.4-.1,3.4,3.4,0,0,0-.8,1.7c-.1,1-.2,1.9-.2,2.8v6.9a4,4,0,0,1-.9,2.1,1.9,1.9,0,0,1-1.3.6,17.7,17.7,0,0,1-4.6,0,2.8,2.8,0,0,1-2.1-2.5,14.1,14.1,0,0,1-.1-2V131a7.8,7.8,0,0,0-.3-2.2,2.1,2.1,0,0,0-.6-1c-.8-.8-1.8-.1-2.1,1a9.7,9.7,0,0,0-.2,2.4v18.5a6.8,6.8,0,0,0,.2,2,1.7,1.7,0,0,0,.6,1.2.9.9,0,0,0,1.5,0,1.9,1.9,0,0,0,.7-1.2,7.7,7.7,0,0,0,.2-1.5,8.8,8.8,0,0,1,.2-1.6,2.3,2.3,0,0,1,1.6-2.2,3.2,3.2,0,0,1,1.4-.3h2.7Z" transform="translate(-237.1 -127.1)"/><path class="cls-1" d="M397.7,146.4a30.4,30.4,0,0,0,.5-6,14.1,14.1,0,0,0-.1-2.9,21.3,21.3,0,0,0-.7-4.4,9,9,0,0,0-3.9-5.1,5.8,5.8,0,0,0-4.4-.7,7.1,7.1,0,0,0-4.9,3.8,12.6,12.6,0,0,0-1.6,5.4,43.5,43.5,0,0,0-.2,5.1,22.2,22.2,0,0,0,.3,3.7,11.8,11.8,0,0,0,2.4,5.7,6.4,6.4,0,0,0,6.2,2.5C394.5,153,397,149.9,397.7,146.4Zm-2.7-1.9a7.3,7.3,0,0,1-1.7,3.8c-1.4,1.5-3,1.9-4.7,1a4.8,4.8,0,0,1-2.4-2.8,12.8,12.8,0,0,1-.7-3.4,18.2,18.2,0,0,1-.1-3.3,14.1,14.1,0,0,1,.7-5,5.3,5.3,0,0,1,2.8-3.6c1.9-.8,3.9.2,5,2a9.9,9.9,0,0,1,.9,2.4,15.4,15.4,0,0,1,.4,3v1.8A28.2,28.2,0,0,1,395,144.5Z" transform="translate(-237.1 -127.1)"/><path class="cls-1" d="M420.4,141.3a9.8,9.8,0,0,0,.8-5.9,9.6,9.6,0,0,0-1-3.4,6.9,6.9,0,0,0-5-4.3,17.6,17.6,0,0,0-3.3-.3,7.3,7.3,0,0,0-3.3.4c-1,.2-1.5,1-1.7,2.2a20.9,20.9,0,0,0-.1,2.5v15.9c0,.9.1,1.9.1,2.8a3.4,3.4,0,0,0,.6,1.5,1.1,1.1,0,0,0,1.8,0,3,3,0,0,0,.5-1.6l.2-1.9c.2-1.7,1.1-2.8,2.5-2.9l2.1-.2a6.5,6.5,0,0,0,5.3-3.8A9.3,9.3,0,0,0,420.4,141.3Zm-2.8-2.2a4,4,0,0,1-2.1,2.6,5.4,5.4,0,0,1-3.3.4,2.8,2.8,0,0,1-2.1-2.9c-.1-.8-.1-1.6-.2-2.4a22.8,22.8,0,0,1,.2-2.7c.2-1.1.7-2.1,1.6-2.3a5,5,0,0,1,3.8.2,4.8,4.8,0,0,1,2.4,3.6A8.2,8.2,0,0,1,417.6,139.1Z" transform="translate(-237.1 -127.1)"/></svg>