<svg id="Layer_1" data-name="Layer 1" xmlns="http://www.w3.org/2000/svg" viewBox="0 0 1798.33 573.18"><defs><style>.cls-1{opacity:0.01;}.cls-2{fill:#fff;}.cls-3{fill:#122335;}</style></defs><title>secondMTNS</title><g class="cls-1"><rect class="cls-2" width="1.12" height="1.12"/><rect class="cls-2" x="1797.21" width="1.12" height="1.12"/></g><path class="cls-3" d="M197.82,423.73c-10.68-12.92-50.58-48.33-48.9-62.38s-14-54.51-18.54-57.33-9-19.1-11.24-21.63-6.74-10.95-9-10.95-11.8-.57-14.05,0-5.62,10.67-7.31,10.95-5.62-11.52-5.62-11.52S74.74,272,72.5,269.75s-10.68-1.69-10.68-1.69L54,260.76c-6.74,1.68-15.17,12.92-15.17,12.92a84.25,84.25,0,0,1-10.68,8.43C20.79,287.17,18,299,17.42,302.79S11.8,300.1,9,302.34s-9-4.66-9-4.66v227a342.82,342.82,0,0,1,63.5-7.11c34.85-.56,70.81,5.62,105.66,6.18s93.28,4.5,84.29-9.55S208.49,436.66,197.82,423.73Z"/><path class="cls-3" d="M1077.37,555.07c-1.27-.79-16.38-14-21.5-17.68s-11-11.93-17-15.06-10.24-7.73-21.37-14.59-8.23-11.48-24.58-17.28-31.68-16.7-35.86-20.19-16.37-13.67-22-15.41-13.1-2.28-16.93-4.93-17.39-15.6-18.71-17.52c0,0-3.75-.69-5-1.76s-5.18-5.32-6-4.73-2.39,2.16-4.28,1.49-3.21,2-5.1,1.33-4.2,3.17-5.27,2.28-3.46-3.61-4-2.65-4.53,9.94-6.42,9.08-7.21-4.4-8.68-4.9a45.12,45.12,0,0,1-5.91-3.13c-2.12-1.23-2.1,4-3.17,3.13a136.07,136.07,0,0,1-9.37-11.62c-.24-.74-7.62,5.37-8.87,5.05s-4.37-.76-5.83-1.26-2.64-3.59-5.09-3.05a14.35,14.35,0,0,1-6.18.21c-2.08-.37-3.63,2.13-5.87,2.79s-6.52,6.83-9.2,7.12S784,433.18,782.36,434s-6.29,7.57-9.12,8.81-9.28,5.25-11.31,6.08-6.83-.47-8.61,1.29-8,6.33-9.63,6.58-12.07,2.75-14.4,1.34-6.78-4.22-6.78-4.22a38,38,0,0,1-5,2.83c-2,.83-6.85,8.9-7.83,10.07a38.3,38.3,0,0,1-7,5.35c-2.42,1.41-13.2,5.22-15.71,4.39s-4.54,4.87-6.82,4.78-3.56,3.52-5.94,5.86-8.08,9-8.89,9.36-5.78-4.82-5.78-4.82-6.39,5.13-6.52,6.83-5.77,5.29-7.59,6.12a13.35,13.35,0,0,1-9.29,0c-3.77-1.34-8.74,3.17-10.06,6s-5.59,4.54-6.66,8.52-4.15,9.17-8.14,7.64-9,6.93-12.57,10.27-11.09,11-18.77,14.82-14.31,8.27-21,11.17-12,8.55-16.33,9.29,30,.65,59.29.77,77.78-1.3,99.67-1.07,139.65-2.7,152.62-3.61,84.84-.27,119.9-1.14,108.49-2.56,108.34-6.11S1077.37,555.07,1077.37,555.07Z"/><path class="cls-3" d="M1784.88,319.66c-2.69-3.89-10.47-8.67-14.35-8.67s-7.78,6-9,7.18-9-2.7-11.36-3.89-14.65-1.2-17-1.2-1.5-3.29-5.08-4.18-9-3.59-14.36-4.19-15.55,6.28-16.74,6.88-8.67-.3-12-.3a105.35,105.35,0,0,0-15.85,1.19c-4.49.9-5.08-3-6.28-4.78s-7.47,1.2-11.06.6-8.38-13.76-9.27-14.65-5.09,1.49-7.78,2.69-9.57,16.74-13.45,17-6.88-12.26-8.37-7.47-4.79,4.18-7.18,6.27-11.36.9-16.75,3-7.17,6.28-10.76,7.78-9-.6-13.46,1.79-9,.3-14.65.9-11.66-6.88-12.85-6.58-8.38,9.87-12,13.76-14.35,14.35-17.94,15.84-3.88,3.59-8.67,5.69-6.87-3-6.87-3c-3,4.78-38,41.26-39.47,43.35s-2.4-1.79-7.18-1.79-5.08,4.48-9,6.88-11.06.59-14.35,1.79-8.68,12.56-14.66,16.74-14.35,12-19.13,14.06-7.48,5.08-10.77,6.28-9.57,9-12,6.58-10.16-4.49-13.15-2.7-12.26,18.24-15.55,19.93-5.09,4-12.86,10-7.18,6.27-17.34,12-10.17,9.86-19.74,18.24-15.85,11.66-20.63,13.75-11.66,8.07-17.64,10.85-16.74,3.83-23.32,4.4-14.36-3.59-16.75-4.19-6,0-11.66,2.77-15,11.29-16.75,11.29-4.18-1.5-8.37-3.73-8,3.29-12,1.07-5.62-.63-8,1.76-10.17,4.19-14.06,6.58-17,7.18-17,7.18c-3,2.25-11.65,5.42-16.15,6.3s-5.68,5-7.47,6.85,79.55-2.23,98.08-1.53,73.55,3.62,150.7,4.22c72.36.56,411.29-8.32,452.7-9.43V331.62S1787.57,323.55,1784.88,319.66Z"/></svg>