<svg id="Layer_1" data-name="Layer 1" xmlns="http://www.w3.org/2000/svg" viewBox="0 0 1798.33 561.74"><defs><style>.cls-1{opacity:0.01;}.cls-2{fill:#fff;}.cls-3{fill:#4c728e;}.cls-4{fill:#234768;}</style></defs><title>sixth mtns</title><g class="cls-1"><rect class="cls-2" width="1.12" height="1.12"/><rect class="cls-2" x="1797.21" width="1.12" height="1.12"/></g><path class="cls-3" d="M1211.87,479.06s6.57-3.29,6.57-6.58-2.39-6.58,0-6.88,5.39,6.58,7.18,4.78a33.06,33.06,0,0,0,5.08-8.07c.9-2.09,4.49-5.08,5.39-2.39s2.09,1.45,2.39-1.07,5.68-4.91,8.67-4.91,6.28,1.79,7.47,3.59,1.2,4.18,7.18,4.18,8.67.9,11.66-1.19,8.08-3,8.67-5.09,2.69-.59,4.49,1.8,5.38,5.38,9.27,9.27,8.07,8.37,12,11.06,3,6.28,7.77,8.07,10.77,7.48,14.36,11.66-26,14.28-35.89,17.46S1263,529,1260,529.88s-14.06,0-17.94,0-26-14.94-28.11-23.32-7.48-13.15-9.57-17.64S1209.51,480.46,1211.87,479.06Z"/><path class="cls-4" d="M306.28,459.7s18-7.31,23-9.55,21-9.23,24.25-10.8,9.47-4.94,12.84-6.63,4.5-8.43,6.74-8.43,7.87,2,9.56,0,4.77-6.74,4.77-6.74,9.56,10.12,10.68,10.12,10.12-6.47,10.4-7.87,6.18,5.62,8.43,5.9,7.59,4.78,8.71,5.06,7.59,7.86,9.27,7.86,10.12,9.28,12.37,11.81,9,10.11,12.64,12.36,10.12,9.83,12.08,11.8,5.9,5.9,8.71,5.9,3.66,3.09,8.71,7.59,45.81,44.68,50,47.21,14.33,11,13.49,13.2-30.07,7.87-39.06,7.87-46.93,5.9-66.31,5.34-43.56-.84-80.65-4.78-86.54-1.68-89.91-9.27-13.21-21.64-8.71-29.51,18-41,23.6-46.08S306.28,459.7,306.28,459.7Z"/></svg>