<svg id="Layer_1" data-name="Layer 1" xmlns="http://www.w3.org/2000/svg" viewBox="0 0 1798.33 574.75"><defs><style>.cls-1{opacity:0.01;}.cls-2{fill:#fff;}.cls-3{fill:#183b5b;}.cls-4{fill:#234768;}</style></defs><title>thirdMTNS</title><g class="cls-1"><rect class="cls-2" width="1.12" height="1.12"/><rect class="cls-2" x="1797.21" width="1.12" height="1.12"/></g><path class="cls-3" d="M420.08,510.84c.95-.6,22.2-16.26,26.69-17.82s6.47.12,9.84-2.41,12.36-1.69,15.45-1.69,6.07,2.9,10.68,1.69,6.74-2.25,11.8-.28,7.59,5.9,11.8,6.18,8.71-.28,11,1.68,8.79,5.91,11.42,6.75,6,6.46,9.38,5.9,10.67,3.65,11.23,2.53,3.66-3.83,5.62.19,14.9,13.58,15.46,18.35,5.34,10.68,10.4,14.33,6.46,9.84,12.36,13.49,18.54,6.46,17.42,8.43-6.74,3.37-14.05,3.37H547.37c-15.74,0-33.16,3.09-40.75,3.09h-27c-22.48,0-49.74.28-58.45,0s-20.51-4.7-21.07-9.51,1.69-22.52,3.93-28.14S416.4,513.17,420.08,510.84Z"/><path class="cls-4" d="M935,556.08c.53-.72,5.78-10,12.56-15.75s4.19-7.37,14.75-11.56,6.38-4,13-8.37,8.57-5.78,13.76-9.37,9-6.58,12.75-9.37,9-10.37,10.17-10.37,3.19-1.81,4-2.6,5.18,1,7.77,1.81,4,2.17,6.58,4.18,6.18,5.19,9.17,7.58,5,2.59,8.57,5.78,13.36,11.95,16.75,14.25,10.56,5.48,14.15,7.48,13.55,8.57,19.53,9.17,16.55,5,18.94,8.77,1.6,7.77,8.37,9.76,3.19,2-1.39,2.2,6.58-1.2-37.88,0-96.68-1-108-.8S933.36,558.32,935,556.08Z"/></svg>